<svg width="1200" height="1200" viewBox="0 0 1200 1200" fill="none" xmlns="http://www.w3.org/2000/svg">
  <rect width="1200" height="1200" rx="72" fill="#0E0E11"/>
  <circle cx="940" cy="240" r="210" fill="url(#paint0_radial)" fill-opacity="0.9"/>
  <circle cx="260" cy="980" r="240" fill="url(#paint1_radial)" fill-opacity="0.85"/>
  <rect x="86" y="92" width="1028" height="1016" rx="46" fill="white" fill-opacity="0.04" stroke="white" stroke-opacity="0.08"/>
  <path d="M180 804C248 736 310 702 370 702C438 702 484 752 542 752C616 752 664 640 754 640C830 640 900 714 1020 844" stroke="url(#paint2_linear)" stroke-width="28" stroke-linecap="round"/>
  <path d="M184 862H1014" stroke="white" stroke-opacity="0.12" stroke-width="12" stroke-linecap="round"/>
  <path d="M184 926H874" stroke="white" stroke-opacity="0.08" stroke-width="12" stroke-linecap="round"/>
  <rect x="184" y="206" width="204" height="56" rx="28" fill="#E00450" fill-opacity="0.12"/>
  <text x="226" y="242" fill="#E00450" font-family="Arial, sans-serif" font-size="28" font-weight="700">PROJETO</text>
  <text x="184" y="358" fill="white" font-family="Arial, sans-serif" font-size="92" font-weight="700">Churn end-to-end</text>
  <text x="184" y="438" fill="#C8C8C8" font-family="Arial, sans-serif" font-size="36">Modelagem de evasão com features comportamentais</text>
  <g opacity="0.95">
    <rect x="184" y="520" width="134" height="56" rx="28" fill="#FFFFFF" fill-opacity="0.08"/>
    <text x="224" y="556" fill="white" font-family="Arial, sans-serif" font-size="26" font-weight="700">Python</text>
    <rect x="336" y="520" width="102" height="56" rx="28" fill="#FFFFFF" fill-opacity="0.08"/>
    <text x="370" y="556" fill="white" font-family="Arial, sans-serif" font-size="26" font-weight="700">SQL</text>
    <rect x="456" y="520" width="176" height="56" rx="28" fill="#FFFFFF" fill-opacity="0.08"/>
    <text x="494" y="556" fill="white" font-family="Arial, sans-serif" font-size="26" font-weight="700">Retention</text>
  </g>
  <defs>
    <radialGradient id="paint0_radial" cx="0" cy="0" r="1" gradientUnits="userSpaceOnUse" gradientTransform="translate(940 240) rotate(90) scale(210)">
      <stop stop-color="#FD6A31"/>
      <stop offset="1" stop-color="#FD6A31" stop-opacity="0"/>
    </radialGradient>
    <radialGradient id="paint1_radial" cx="0" cy="0" r="1" gradientUnits="userSpaceOnUse" gradientTransform="translate(260 980) rotate(90) scale(240)">
      <stop stop-color="#E00450"/>
      <stop offset="1" stop-color="#E00450" stop-opacity="0"/>
    </radialGradient>
    <linearGradient id="paint2_linear" x1="180" y1="844" x2="1020" y2="640" gradientUnits="userSpaceOnUse">
      <stop stop-color="#E00450"/>
      <stop offset="1" stop-color="#FD6A31"/>
    </linearGradient>
  </defs>
</svg>
