<?xml version="1.0" encoding="UTF-8" standalone="no"?>
<svg
   width="2700"
   height="2700"
   viewBox="0 0 2700 2700"
   fill="none"
   version="1.1"
   id="svg6"
   sodipodi:docname="utfpr.svg"
   inkscape:export-filename="utfpr.webp"
   inkscape:export-xdpi="17.777779"
   inkscape:export-ydpi="17.777779"
   inkscape:version="1.4.3 (0d15f75, 2025-12-25)"
   xmlns:inkscape="http://www.inkscape.org/namespaces/inkscape"
   xmlns:sodipodi="http://sodipodi.sourceforge.net/DTD/sodipodi-0.dtd"
   xmlns="http://www.w3.org/2000/svg"
   xmlns:svg="http://www.w3.org/2000/svg">
  <defs
     id="defs6" />
  <sodipodi:namedview
     id="namedview6"
     pagecolor="#ffffff"
     bordercolor="#666666"
     borderopacity="1.0"
     inkscape:showpageshadow="2"
     inkscape:pageopacity="0.0"
     inkscape:pagecheckerboard="0"
     inkscape:deskcolor="#d1d1d1"
     inkscape:export-bgcolor="#ffffffff"
     inkscape:zoom="0.1767767"
     inkscape:cx="-268.70058"
     inkscape:cy="1272.7922"
     inkscape:window-width="1920"
     inkscape:window-height="1009"
     inkscape:window-x="-8"
     inkscape:window-y="-8"
     inkscape:window-maximized="1"
     inkscape:current-layer="svg6" />
  <g
     id="g6"
     transform="translate(184.185,922.44159)">
    <path
       fill-rule="evenodd"
       clip-rule="evenodd"
       d="M 952.069,736.445 V 146.661 h 552.901 v 116.123 h -405.21 v 473.661 z"
       fill="#f6c212"
       id="path1" />
    <path
       d="M 453.188,-1.83105e-4 V 424.792 c 0,125.434 -40.07,207.647 -152.837,207.647 -112.769,0 -152.804,-82.213 -152.804,-207.647 V -1.83105e-4 H 0 V 470.116 c 0,197.087 111.688,278.295 300.351,278.295 188.648,0 300.339,-81.208 300.339,-278.295 V 115.936 H 771.207 V 735.748 H 918.755 V 115.936 H 1505.87 V -1.83105e-4 Z"
       fill="#231f20"
       id="path2" />
    <path
       d="M 1132.25,736.445 V 297.478 h 372.72 V 413.53 h -233.92 v 322.915 z"
       fill="#231f20"
       id="path3" />
    <path
       d="M 1568,735 V 297 h 141.88 c 53.77,0 88.81,2.191 105.14,6.573 25.09,6.573 46.1,20.914 63.03,43.023 16.92,21.91 25.39,50.293 25.39,85.15 0,26.89 -4.88,49.497 -14.64,67.822 -9.76,18.324 -22.2,32.765 -37.34,43.321 -14.93,10.358 -30.17,17.23 -45.7,20.616 -21.11,4.183 -51.67,6.274 -91.7,6.274 h -57.65 V 735 Z m 88.41,-363.905 v 124.29 h 48.39 c 34.85,0 58.15,-2.291 69.9,-6.872 11.75,-4.581 20.91,-11.752 27.48,-21.512 6.77,-9.76 10.15,-21.113 10.15,-34.06 0,-15.934 -4.68,-29.08 -14.04,-39.438 -9.35,-10.357 -21.2,-16.83 -35.54,-19.42 -10.55,-1.992 -31.76,-2.988 -63.62,-2.988 z"
       fill="#231f20"
       id="path4" />
    <path
       d="M 1934.32,735 V 297 h 186.09 c 46.79,0 80.74,3.984 101.85,11.951 21.31,7.768 38.33,21.711 51.08,41.828 12.74,20.117 19.12,43.123 19.12,69.016 0,32.865 -9.66,60.054 -28.98,81.565 -19.31,21.313 -48.19,34.757 -86.62,40.334 19.12,11.155 34.85,23.404 47.19,36.749 12.55,13.346 29.38,37.048 50.48,71.108 L 2328,735 h -105.74 l -63.92,-95.308 c -22.7,-34.06 -38.23,-55.472 -46.6,-64.236 -8.36,-8.964 -17.22,-15.039 -26.58,-18.225 -9.36,-3.387 -24.19,-5.08 -44.51,-5.08 h -17.92 V 735 Z m 88.41,-252.761 h 65.42 c 42.41,0 68.9,-1.793 79.45,-5.378 10.55,-3.585 18.82,-9.76 24.79,-18.524 5.98,-8.764 8.96,-19.719 8.96,-32.865 0,-14.739 -3.98,-26.591 -11.95,-35.554 -7.76,-9.162 -18.81,-14.938 -33.15,-17.329 -7.17,-0.996 -28.68,-1.494 -64.52,-1.494 h -69 z"
       fill="#231f20"
       id="path5" />
    <path
       d="m 11.3164,791.008 h 12.7188 v 34.117 c 0,5.414 0.1575,8.923 0.4726,10.527 0.5443,2.578 1.8333,4.655 3.8672,6.231 2.0625,1.547 4.8698,2.32 8.4219,2.32 3.6093,0 6.3307,-0.73 8.164,-2.191 1.8334,-1.49 2.9362,-3.309 3.3086,-5.457 0.3724,-2.149 0.5586,-5.715 0.5586,-10.7 v -34.847 h 12.7188 v 33.086 c 0,7.562 -0.3438,12.905 -1.0313,16.027 -0.6875,3.122 -1.9622,5.758 -3.8242,7.906 -1.8333,2.149 -4.2969,3.868 -7.3906,5.157 -3.0938,1.26 -7.1328,1.89 -12.1172,1.89 -6.0156,0 -10.5846,-0.687 -13.707,-2.062 -3.0938,-1.404 -5.543,-3.209 -7.3477,-5.414 -1.8047,-2.235 -2.9935,-4.569 -3.5664,-7.004 -0.8307,-3.61 -1.2461,-8.938 -1.2461,-15.985 z M 75.125,854 V 791.008 H 87.5 l 25.781,42.066 v -42.066 h 11.817 V 854 H 112.336 L 86.9414,812.922 V 854 Z m 63.078,0 v -62.992 h 12.719 V 854 Z m 40.949,0 -22.515,-62.992 h 13.793 l 15.941,46.621 15.426,-46.621 h 13.492 L 192.73,854 Z m 42.625,0 v -62.992 h 46.707 v 10.656 h -33.988 v 13.965 h 31.625 v 10.613 h -31.625 v 17.145 h 35.192 V 854 Z m 58.739,0 v -62.992 h 26.769 c 6.732,0 11.616,0.573 14.653,1.719 3.065,1.117 5.514,3.122 7.347,6.015 1.833,2.893 2.75,6.202 2.75,9.926 0,4.727 -1.389,8.637 -4.168,11.73 -2.778,3.066 -6.932,4.999 -12.461,5.801 2.75,1.604 5.013,3.366 6.789,5.285 1.805,1.92 4.226,5.328 7.262,10.227 L 337.148,854 h -15.21 l -9.196,-13.707 c -3.265,-4.898 -5.5,-7.978 -6.703,-9.238 -1.203,-1.289 -2.478,-2.163 -3.824,-2.621 -1.347,-0.487 -3.481,-0.731 -6.403,-0.731 h -2.578 V 854 Z m 12.718,-36.352 h 9.411 c 6.101,0 9.911,-0.257 11.429,-0.773 1.518,-0.516 2.707,-1.404 3.567,-2.664 0.859,-1.26 1.289,-2.836 1.289,-4.727 0,-2.119 -0.573,-3.824 -1.719,-5.113 -1.117,-1.318 -2.707,-2.148 -4.77,-2.492 -1.031,-0.143 -4.125,-0.215 -9.281,-0.215 h -9.926 z m 47.61,15.856 12.375,-1.203 c 0.745,4.153 2.248,7.204 4.511,9.152 2.292,1.948 5.372,2.922 9.239,2.922 4.096,0 7.176,-0.859 9.238,-2.578 2.091,-1.748 3.137,-3.781 3.137,-6.102 0,-1.489 -0.444,-2.75 -1.332,-3.781 -0.86,-1.06 -2.378,-1.976 -4.555,-2.75 -1.49,-0.516 -4.884,-1.432 -10.184,-2.75 -6.817,-1.69 -11.601,-3.767 -14.351,-6.23 -3.867,-3.467 -5.801,-7.692 -5.801,-12.676 0,-3.209 0.902,-6.202 2.707,-8.981 1.833,-2.807 4.455,-4.941 7.863,-6.402 3.438,-1.461 7.577,-2.191 12.418,-2.191 7.907,0 13.851,1.733 17.832,5.199 4.011,3.466 6.116,8.092 6.317,13.879 l -12.719,0.558 c -0.544,-3.237 -1.719,-5.557 -3.523,-6.961 -1.776,-1.432 -4.455,-2.148 -8.036,-2.148 -3.695,0 -6.588,0.759 -8.679,2.277 -1.347,0.974 -2.02,2.278 -2.02,3.91 0,1.49 0.63,2.765 1.891,3.825 1.604,1.346 5.5,2.75 11.687,4.211 6.188,1.461 10.757,2.979 13.707,4.554 2.98,1.547 5.3,3.681 6.961,6.403 1.69,2.692 2.535,6.03 2.535,10.011 0,3.61 -1.002,6.99 -3.007,10.141 -2.006,3.151 -4.841,5.5 -8.508,7.047 -3.667,1.518 -8.236,2.277 -13.707,2.277 -7.964,0 -14.08,-1.833 -18.348,-5.5 -4.268,-3.695 -6.818,-9.066 -7.648,-16.113 z M 402.375,854 v -62.992 h 12.719 V 854 Z m 24.836,-62.992 h 23.246 c 5.242,0 9.238,0.401 11.988,1.203 3.696,1.088 6.861,3.022 9.496,5.801 2.636,2.778 4.641,6.187 6.016,10.226 1.375,4.011 2.063,8.966 2.063,14.867 0,5.185 -0.645,9.654 -1.934,13.407 -1.576,4.583 -3.824,8.293 -6.746,11.129 -2.206,2.148 -5.185,3.824 -8.938,5.027 -2.807,0.888 -6.56,1.332 -11.257,1.332 h -23.934 z m 12.719,10.656 v 41.723 h 9.496 c 3.552,0 6.116,-0.201 7.691,-0.602 2.063,-0.515 3.767,-1.389 5.113,-2.621 1.375,-1.232 2.493,-3.251 3.352,-6.059 0.859,-2.835 1.289,-6.688 1.289,-11.558 0,-4.87 -0.43,-8.608 -1.289,-11.215 -0.859,-2.607 -2.062,-4.641 -3.609,-6.102 -1.547,-1.46 -3.509,-2.449 -5.887,-2.964 -1.776,-0.401 -5.257,-0.602 -10.441,-0.602 z M 547.652,854 h -13.836 l -5.5,-14.309 H 503.137 L 497.938,854 h -13.493 l 24.535,-62.992 h 13.45 z m -23.418,-24.922 -8.679,-23.375 -8.508,23.375 z m 30.164,-38.07 h 23.247 c 5.242,0 9.238,0.401 11.988,1.203 3.695,1.088 6.86,3.022 9.496,5.801 2.635,2.778 4.641,6.187 6.016,10.226 1.375,4.011 2.062,8.966 2.062,14.867 0,5.185 -0.645,9.654 -1.934,13.407 -1.575,4.583 -3.824,8.293 -6.746,11.129 -2.205,2.148 -5.185,3.824 -8.937,5.027 -2.807,0.888 -6.56,1.332 -11.258,1.332 h -23.934 z m 12.719,10.656 v 41.723 h 9.496 c 3.552,0 6.116,-0.201 7.692,-0.602 2.062,-0.515 3.767,-1.389 5.113,-2.621 1.375,-1.232 2.492,-3.251 3.352,-6.059 0.859,-2.835 1.289,-6.688 1.289,-11.558 0,-4.87 -0.43,-8.608 -1.289,-11.215 -0.86,-2.607 -2.063,-4.641 -3.61,-6.102 -1.547,-1.46 -3.509,-2.449 -5.887,-2.964 -1.776,-0.401 -5.256,-0.602 -10.441,-0.602 z M 618.035,854 v -62.992 h 46.707 v 10.656 h -33.988 v 13.965 h 31.625 v 10.613 h -31.625 v 17.145 h 35.191 V 854 Z m 97.367,0 v -52.336 h -18.691 v -10.656 h 50.059 v 10.656 H 728.121 V 854 Z m 39.618,0 v -62.992 h 46.707 v 10.656 h -33.989 v 13.965 h 31.625 v 10.613 h -31.625 v 17.145 H 802.93 V 854 Z m 99,-23.16 12.332,3.91 c -1.891,6.875 -5.042,11.988 -9.454,15.34 -4.382,3.323 -9.954,4.984 -16.714,4.984 -8.365,0 -15.24,-2.85 -20.625,-8.551 -5.386,-5.729 -8.079,-13.549 -8.079,-23.461 0,-10.484 2.708,-18.619 8.122,-24.406 5.414,-5.815 12.532,-8.722 21.355,-8.722 7.706,0 13.965,2.277 18.777,6.832 2.865,2.692 5.013,6.56 6.446,11.601 l -12.59,3.008 c -0.745,-3.266 -2.306,-5.844 -4.684,-7.734 -2.349,-1.891 -5.213,-2.836 -8.594,-2.836 -4.669,0 -8.464,1.675 -11.386,5.027 -2.893,3.352 -4.34,8.78 -4.34,16.285 0,7.964 1.432,13.636 4.297,17.016 2.864,3.38 6.588,5.07 11.172,5.07 3.38,0 6.287,-1.074 8.722,-3.223 2.435,-2.148 4.183,-5.528 5.243,-10.14 z M 877.438,854 v -62.992 h 12.374 l 25.782,42.066 V 791.008 H 927.41 V 854 H 914.648 L 889.254,812.922 V 854 Z m 60.886,-31.109 c 0,-6.417 0.96,-11.802 2.879,-16.157 1.432,-3.208 3.38,-6.087 5.844,-8.636 2.492,-2.55 5.213,-4.44 8.164,-5.672 3.924,-1.662 8.45,-2.492 13.578,-2.492 9.281,0 16.701,2.878 22.258,8.636 5.586,5.758 8.379,13.765 8.379,24.02 0,10.169 -2.765,18.133 -8.293,23.89 -5.529,5.73 -12.919,8.594 -22.172,8.594 -9.367,0 -16.815,-2.85 -22.344,-8.551 -5.528,-5.729 -8.293,-13.606 -8.293,-23.632 z m 13.106,-0.43 c 0,7.133 1.647,12.547 4.941,16.242 3.294,3.667 7.477,5.5 12.547,5.5 5.07,0 9.224,-1.819 12.461,-5.457 3.266,-3.667 4.898,-9.152 4.898,-16.457 0,-7.219 -1.589,-12.604 -4.769,-16.156 -3.151,-3.552 -7.348,-5.328 -12.59,-5.328 -5.242,0 -9.467,1.804 -12.676,5.414 -3.208,3.58 -4.812,8.995 -4.812,16.242 z M 1009.74,854 v -62.477 h 12.72 v 51.864 h 31.62 V 854 Z m 50.87,-31.109 c 0,-6.417 0.96,-11.802 2.88,-16.157 1.43,-3.208 3.38,-6.087 5.85,-8.636 2.49,-2.55 5.21,-4.44 8.16,-5.672 3.92,-1.662 8.45,-2.492 13.58,-2.492 9.28,0 16.7,2.878 22.26,8.636 5.58,5.758 8.37,13.765 8.37,24.02 0,10.169 -2.76,18.133 -8.29,23.89 -5.53,5.73 -12.92,8.594 -22.17,8.594 -9.37,0 -16.82,-2.85 -22.34,-8.551 -5.53,-5.729 -8.3,-13.606 -8.3,-23.632 z m 13.11,-0.43 c 0,7.133 1.65,12.547 4.94,16.242 3.29,3.667 7.48,5.5 12.55,5.5 5.07,0 9.22,-1.819 12.46,-5.457 3.26,-3.667 4.9,-9.152 4.9,-16.457 0,-7.219 -1.59,-12.604 -4.77,-16.156 -3.15,-3.552 -7.35,-5.328 -12.59,-5.328 -5.25,0 -9.47,1.804 -12.68,5.414 -3.21,3.58 -4.81,8.995 -4.81,16.242 z m 9.62,-35.063 5.93,-12.847 h 13.54 l -11.82,12.847 z m 77.65,43.442 v -10.613 h 27.41 v 25.093 c -2.66,2.578 -6.53,4.856 -11.6,6.832 -5.04,1.948 -10.15,2.922 -15.34,2.922 -6.59,0 -12.33,-1.375 -17.23,-4.125 -4.9,-2.778 -8.58,-6.732 -11.04,-11.859 -2.47,-5.156 -3.7,-10.757 -3.7,-16.801 0,-6.56 1.38,-12.389 4.13,-17.488 2.75,-5.099 6.77,-9.009 12.07,-11.731 4.04,-2.091 9.07,-3.136 15.08,-3.136 7.82,0 13.93,1.647 18.31,4.941 4.41,3.266 7.25,7.792 8.51,13.578 l -12.64,2.363 c -0.88,-3.093 -2.56,-5.528 -5.02,-7.304 -2.44,-1.805 -5.49,-2.707 -9.16,-2.707 -5.55,0 -9.98,1.761 -13.27,5.285 -3.27,3.523 -4.9,8.751 -4.9,15.683 0,7.477 1.66,13.092 4.98,16.844 3.32,3.724 7.68,5.586 13.06,5.586 2.67,0 5.33,-0.515 8,-1.547 2.69,-1.06 5,-2.334 6.91,-3.824 v -7.992 z m 38.8,23.16 v -62.992 h 12.72 V 854 Z m 65.18,-23.16 12.33,3.91 c -1.89,6.875 -5.04,11.988 -9.45,15.34 -4.38,3.323 -9.95,4.984 -16.71,4.984 -8.37,0 -15.24,-2.85 -20.63,-8.551 -5.38,-5.729 -8.08,-13.549 -8.08,-23.461 0,-10.484 2.71,-18.619 8.12,-24.406 5.42,-5.815 12.54,-8.722 21.36,-8.722 7.71,0 13.97,2.277 18.78,6.832 2.86,2.692 5.01,6.56 6.44,11.601 l -12.59,3.008 c -0.74,-3.266 -2.3,-5.844 -4.68,-7.734 -2.35,-1.891 -5.21,-2.836 -8.59,-2.836 -4.67,0 -8.47,1.675 -11.39,5.027 -2.89,3.352 -4.34,8.78 -4.34,16.285 0,7.964 1.43,13.636 4.3,17.016 2.86,3.38 6.58,5.07 11.17,5.07 3.38,0 6.29,-1.074 8.72,-3.223 2.44,-2.148 4.18,-5.528 5.24,-10.14 z m 80.1,23.16 h -13.84 l -5.5,-14.309 h -25.18 l -5.2,14.309 h -13.49 l 24.53,-62.992 h 13.45 z m -23.42,-24.922 -8.68,-23.375 -8.51,23.375 z M 1373.17,854 v -62.992 h 43.18 v 10.656 h -30.46 v 14.91 h 26.29 v 10.656 h -26.29 V 854 Z m 53.71,0 v -62.992 h 46.71 v 10.656 h -33.99 v 13.965 h 31.62 v 10.613 h -31.62 v 17.145 h 35.19 V 854 Z m 58.65,-62.992 h 23.25 c 5.24,0 9.24,0.401 11.99,1.203 3.69,1.088 6.86,3.022 9.49,5.801 2.64,2.778 4.64,6.187 6.02,10.226 1.37,4.011 2.06,8.966 2.06,14.867 0,5.185 -0.64,9.654 -1.93,13.407 -1.58,4.583 -3.83,8.293 -6.75,11.129 -2.21,2.148 -5.18,3.824 -8.94,5.027 -2.8,0.888 -6.56,1.332 -11.26,1.332 h -23.93 z m 12.72,10.656 v 41.723 h 9.5 c 3.55,0 6.11,-0.201 7.69,-0.602 2.06,-0.515 3.76,-1.389 5.11,-2.621 1.38,-1.232 2.49,-3.251 3.35,-6.059 0.86,-2.835 1.29,-6.688 1.29,-11.558 0,-4.87 -0.43,-8.608 -1.29,-11.215 -0.86,-2.607 -2.06,-4.641 -3.61,-6.102 -1.54,-1.46 -3.51,-2.449 -5.88,-2.964 -1.78,-0.401 -5.26,-0.602 -10.45,-0.602 z M 1549.17,854 v -62.992 h 46.71 v 10.656 h -33.99 v 13.965 h 31.62 v 10.613 h -31.62 v 17.145 h 35.19 V 854 Z m 58.74,0 v -62.992 h 26.77 c 6.73,0 11.61,0.573 14.65,1.719 3.06,1.117 5.51,3.122 7.35,6.015 1.83,2.893 2.75,6.202 2.75,9.926 0,4.727 -1.39,8.637 -4.17,11.73 -2.78,3.066 -6.93,4.999 -12.46,5.801 2.75,1.604 5.01,3.366 6.79,5.285 1.8,1.92 4.22,5.328 7.26,10.227 l 7.69,12.289 h -15.21 l -9.2,-13.707 c -3.26,-4.898 -5.5,-7.978 -6.7,-9.238 -1.2,-1.289 -2.48,-2.163 -3.82,-2.621 -1.35,-0.487 -3.49,-0.731 -6.41,-0.731 h -2.58 V 854 Z m 12.71,-36.352 h 9.42 c 6.1,0 9.91,-0.257 11.42,-0.773 1.52,-0.516 2.71,-1.404 3.57,-2.664 0.86,-1.26 1.29,-2.836 1.29,-4.727 0,-2.119 -0.57,-3.824 -1.72,-5.113 -1.12,-1.318 -2.71,-2.148 -4.77,-2.492 -1.03,-0.143 -4.12,-0.215 -9.28,-0.215 h -9.93 z M 1728.26,854 h -13.83 l -5.5,-14.309 h -25.18 l -5.2,14.309 h -13.5 l 24.54,-62.992 h 13.45 z m -23.42,-24.922 -8.68,-23.375 -8.5,23.375 z M 1735.39,854 v -62.477 h 12.72 v 51.864 h 31.63 V 854 Z m 76.27,-62.992 h 23.25 c 5.24,0 9.24,0.401 11.99,1.203 3.69,1.088 6.86,3.022 9.49,5.801 2.64,2.778 4.65,6.187 6.02,10.226 1.38,4.011 2.06,8.966 2.06,14.867 0,5.185 -0.64,9.654 -1.93,13.407 -1.58,4.583 -3.83,8.293 -6.75,11.129 -2.2,2.148 -5.18,3.824 -8.93,5.027 -2.81,0.888 -6.56,1.332 -11.26,1.332 h -23.94 z m 12.72,10.656 v 41.723 h 9.5 c 3.55,0 6.11,-0.201 7.69,-0.602 2.06,-0.515 3.77,-1.389 5.11,-2.621 1.38,-1.232 2.5,-3.251 3.36,-6.059 0.85,-2.835 1.28,-6.688 1.28,-11.558 0,-4.87 -0.43,-8.608 -1.28,-11.215 -0.86,-2.607 -2.07,-4.641 -3.61,-6.102 -1.55,-1.46 -3.51,-2.449 -5.89,-2.964 -1.78,-0.401 -5.26,-0.602 -10.44,-0.602 z m 48.34,21.227 c 0,-6.417 0.96,-11.802 2.88,-16.157 1.43,-3.208 3.38,-6.087 5.85,-8.636 2.49,-2.55 5.21,-4.44 8.16,-5.672 3.92,-1.662 8.45,-2.492 13.58,-2.492 9.28,0 16.7,2.878 22.26,8.636 5.58,5.758 8.37,13.765 8.37,24.02 0,10.169 -2.76,18.133 -8.29,23.89 -5.53,5.73 -12.92,8.594 -22.17,8.594 -9.37,0 -16.82,-2.85 -22.34,-8.551 -5.53,-5.729 -8.3,-13.606 -8.3,-23.632 z m 13.11,-0.43 c 0,7.133 1.65,12.547 4.94,16.242 3.29,3.667 7.48,5.5 12.55,5.5 5.07,0 9.22,-1.819 12.46,-5.457 3.26,-3.667 4.9,-9.152 4.9,-16.457 0,-7.219 -1.59,-12.604 -4.77,-16.156 -3.15,-3.552 -7.35,-5.328 -12.59,-5.328 -5.25,0 -9.47,1.804 -12.68,5.414 -3.21,3.58 -4.81,8.995 -4.81,16.242 z M 1968.29,854 v -62.992 h 20.41 c 7.73,0 12.77,0.315 15.12,0.945 3.61,0.945 6.63,3.008 9.07,6.188 2.43,3.151 3.65,7.233 3.65,12.246 0,3.867 -0.7,7.118 -2.11,9.754 -1.4,2.635 -3.19,4.712 -5.37,6.23 -2.15,1.49 -4.34,2.478 -6.57,2.965 -3.04,0.602 -7.44,0.902 -13.19,0.902 H 1981 V 854 Z M 1981,801.664 v 17.875 h 6.96 c 5.02,0 8.37,-0.329 10.06,-0.988 1.69,-0.659 3.01,-1.69 3.95,-3.094 0.98,-1.404 1.46,-3.036 1.46,-4.898 0,-2.292 -0.67,-4.183 -2.02,-5.672 -1.34,-1.49 -3.05,-2.421 -5.11,-2.793 -1.52,-0.287 -4.57,-0.43 -9.15,-0.43 z M 2077.25,854 h -13.83 l -5.5,-14.309 h -25.18 l -5.2,14.309 h -13.49 l 24.53,-62.992 h 13.45 z m -23.41,-24.922 -8.68,-23.375 -8.51,23.375 z M 2084.09,854 v -62.992 h 26.77 c 6.73,0 11.61,0.573 14.65,1.719 3.06,1.117 5.51,3.122 7.35,6.015 1.83,2.893 2.75,6.202 2.75,9.926 0,4.727 -1.39,8.637 -4.17,11.73 -2.78,3.066 -6.93,4.999 -12.46,5.801 2.75,1.604 5.01,3.366 6.79,5.285 1.8,1.92 4.22,5.328 7.26,10.227 l 7.69,12.289 h -15.21 l -9.2,-13.707 c -3.26,-4.898 -5.5,-7.978 -6.7,-9.238 -1.2,-1.289 -2.48,-2.163 -3.82,-2.621 -1.35,-0.487 -3.49,-0.731 -6.41,-0.731 h -2.58 V 854 Z m 12.71,-36.352 h 9.41 c 6.11,0 9.92,-0.257 11.43,-0.773 1.52,-0.516 2.71,-1.404 3.57,-2.664 0.86,-1.26 1.29,-2.836 1.29,-4.727 0,-2.119 -0.57,-3.824 -1.72,-5.113 -1.12,-1.318 -2.71,-2.148 -4.77,-2.492 -1.03,-0.143 -4.12,-0.215 -9.28,-0.215 h -9.93 z M 2204.44,854 h -13.83 l -5.5,-14.309 h -25.18 l -5.2,14.309 h -13.5 l 24.54,-62.992 h 13.45 z m -23.42,-24.922 -8.68,-23.375 -8.5,23.375 z M 2211.36,854 v -62.992 h 12.37 l 25.79,42.066 v -42.066 h 11.81 V 854 h -12.76 l -25.39,-41.078 V 854 Z m 120.27,0 h -13.84 l -5.5,-14.309 h -25.18 l -5.2,14.309 h -13.49 l 24.54,-62.992 h 13.45 z m -23.42,-24.922 -8.68,-23.375 -8.51,23.375 z m -15.98,-41.68 5.93,-12.847 h 13.53 l -11.81,12.847 z"
       fill="#231f20"
       id="path6" />
  </g>
</svg>
