<?xml version="1.0" encoding="UTF-8" standalone="no"?>
<!-- Created with Inkscape (http://www.inkscape.org/) -->

<svg
   width="200"
   height="200"
   viewBox="0 0 52.916666 52.916666"
   version="1.1"
   id="svg1"
   xml:space="preserve"
   xmlns:xlink="http://www.w3.org/1999/xlink"
   xmlns="http://www.w3.org/2000/svg"
   xmlns:svg="http://www.w3.org/2000/svg"><defs
     id="defs1"><linearGradient
       id="linearGradient9">
      <stop
   style="stop-color:#fd6a31;stop-opacity:1;"
   offset="0"
   id="stop9" />
      <stop
   style="stop-color:#e00450;stop-opacity:1;"
   offset="0.74789917"
   id="stop10" />
    </linearGradient><linearGradient
       xlink:href="#linearGradient9"
       id="linearGradient10"
       x1="198.52345"
       y1="9.1309042"
       x2="13.549079"
       y2="194.98891"
       gradientUnits="userSpaceOnUse" /><clipPath
       id="clipPath92">
      <ellipse
   style="display:inline;fill:none;fill-opacity:1;stroke:#000000;stroke-width:0.578378;stroke-linecap:round;stroke-linejoin:round;stroke-dasharray:none;stroke-opacity:1;paint-order:stroke fill markers"
   id="ellipse93"
   cy="76.132622"
   cx="104.83066"
   rx="77.762199"
   ry="103.34467" />
    </clipPath><clipPath
       id="clipPath94">
      <ellipse
   style="display:inline;fill:none;fill-opacity:1;stroke:#000000;stroke-width:0.565052;stroke-linecap:round;stroke-linejoin:round;stroke-dasharray:none;stroke-opacity:1;paint-order:stroke fill markers"
   id="ellipse95"
   cy="81.57151"
   cx="104.83066"
   rx="77.762199"
   ry="98.637398" />
    </clipPath><clipPath
       id="clipPath95">
      <ellipse
   style="display:inline;fill:none;fill-opacity:1;stroke:#000000;stroke-width:0.590627;stroke-linecap:round;stroke-linejoin:round;stroke-dasharray:none;stroke-opacity:1;paint-order:stroke fill markers"
   id="ellipse96"
   cy="72.833702"
   cx="104.83066"
   rx="77.762199"
   ry="107.76826" />
    </clipPath><clipPath
       id="clipPath96">
      <ellipse
   style="display:inline;fill:none;fill-opacity:1;stroke:#000000;stroke-width:0.673304;stroke-linecap:round;stroke-linejoin:round;stroke-dasharray:none;stroke-opacity:1;paint-order:stroke fill markers"
   id="ellipse97"
   cy="40.484238"
   cx="104.83066"
   rx="77.762199"
   ry="140.05138" />
    </clipPath><clipPath
       id="clipPath97">
      <ellipse
   style="display:inline;fill:none;fill-opacity:1;stroke:#000000;stroke-width:0.572257;stroke-linecap:round;stroke-linejoin:round;stroke-dasharray:none;stroke-opacity:1;paint-order:stroke fill markers"
   id="ellipse98"
   cy="79.004593"
   cx="104.83066"
   rx="77.762199"
   ry="101.16903" />
    </clipPath><clipPath
       id="clipPath98">
      <ellipse
   style="display:inline;fill:none;fill-opacity:1;stroke:#000000;stroke-width:0.499999;stroke-linecap:round;stroke-linejoin:round;stroke-dasharray:none;stroke-opacity:1;paint-order:stroke fill markers"
   id="ellipse99"
   cy="103.47272"
   cx="104.83066"
   rx="77.762199"
   ry="77.23304" />
    </clipPath></defs><g
     id="layer1"
     transform="scale(0.27862575)"><g
       id="g1"><g
         id="layer1-5"
         style="display:none"
         transform="translate(-9.8705447,-8.512596)">
    
  </g><g
         id="layer5"
         style="display:inline"
         transform="translate(-9.8705447,-8.512596)">
    <circle
   style="display:inline;fill:url(#linearGradient10);fill-opacity:1;stroke:none;stroke-width:5.29167;stroke-linecap:round;stroke-linejoin:round;stroke-dasharray:none;paint-order:stroke fill markers"
   id="path1"
   r="94.960114"
   cy="103.47271"
   cx="104.83066" />
  </g><g
         id="layer6"
         style="display:inline"
         transform="translate(-9.8705447,-8.512596)">
    <path
   style="fill:#fefefc;fill-opacity:1;stroke-width:0.826908;stroke-linejoin:round;paint-order:fill markers stroke"
   d="m 51.570496,166.02331 c 0.711944,0.40384 1.422096,0.81356 2.138887,1.20104 1.133664,0.61285 2.273552,1.20541 3.418396,1.77736 1.144844,0.57194 2.295053,1.12332 3.449919,1.65438 0.433654,0.19942 0.870908,0.38161 1.305863,0.57526 h 0.227893 v -36.39408 a 4.6360666,3.1700289 0 0 0 -0.0708,-0.55052 4.6360666,3.1700289 0 0 0 -0.208773,-0.53355 4.6360666,3.1700289 0 0 0 -0.341581,-0.50071 4.6360666,3.1700289 0 0 0 -0.463538,-0.45263 4.6360666,3.1700289 0 0 0 -0.571541,-0.39081 4.6360666,3.1700289 0 0 0 -0.661975,-0.31696 4.6360666,3.1700289 0 0 0 -0.732256,-0.23355 4.6360666,3.1700289 0 0 0 -0.78083,-0.14312 4.6360666,3.1700289 0 0 0 -0.805119,-0.0481 h -1.268657 a 4.6360666,3.1700289 0 0 0 -2.318204,0.42473 4.6360666,3.1700289 0 0 0 -1.696538,1.16039 4.6360666,3.1700289 0 0 0 -0.62115,1.58479 z"
   id="path31"
   clip-path="url(#clipPath98)" />
    <path
   style="fill:#fefefc;fill-opacity:1;stroke-linejoin:round;paint-order:fill markers stroke"
   d="m 70.450997,171.73267 c 0.211052,0.10904 0.420755,0.23033 0.632003,0.33745 1.17798,0.59729 2.35905,1.1647 3.542419,1.70222 1.183369,0.53752 2.36929,1.04516 3.556889,1.5229 1.187599,0.47775 2.37707,0.92561 3.567741,1.34359 0.0078,0.003 0.01549,0.005 0.02325,0.008 V 97.725784 A 5.659569,5.659569 45 0 0 76.11373,92.066215 h -0.0032 a 5.659569,5.659569 135 0 0 -5.659569,5.659569 z"
   transform="matrix(1,0,0,0.76340595,0,43.160137)"
   id="path32"
   clip-path="url(#clipPath97)" />
    <path
   style="fill:#fefefc;fill-opacity:1;stroke-linejoin:round;paint-order:fill markers stroke"
   d="m 89.546989,178.93275 c 0.979041,0.23606 1.958071,0.46509 2.936772,0.66094 1.192937,0.23871 2.385666,0.44735 3.577042,0.62632 1.191377,0.17897 2.381668,0.32828 3.570325,0.44752 0.530672,0.0532 1.059602,0.0786 1.589562,0.11988 V 84.823759 a 5.8430496,5.8430496 45 0 0 -5.84305,-5.84305 5.8368538,5.8368538 134.93915 0 0 -5.830651,5.84305 z"
   transform="matrix(1,0,0,0.55146217,0,81.147188)"
   id="path33"
   clip-path="url(#clipPath96)" />
    <path
   style="fill:#fefefc;fill-opacity:1;stroke-linejoin:round;paint-order:fill markers stroke"
   d="m 108.9396,72.88855 v 108.07973 c 0.4428,-0.0141 0.88726,-0.0115 1.32912,-0.0341 1.17355,-0.06 2.34367,-0.14957 3.50986,-0.26924 1.1662,-0.11967 2.32841,-0.26917 3.4861,-0.44855 1.03956,-0.16108 2.07445,-0.35457 3.10627,-0.56379 V 72.88855 a 5.7107384,5.7107384 45 0 0 -5.71074,-5.710738 h -0.01 a 5.7107384,5.7107384 135 0 0 -5.71074,5.710738 z"
   transform="matrix(1,0,0,0.71665851,0,51.275821)"
   id="path34"
   clip-path="url(#clipPath95)" />
    <path
   style="fill:#fefefc;fill-opacity:1;stroke-linejoin:round;paint-order:fill markers stroke"
   d="m 128.04696,177.62172 c 0.95554,-0.31253 1.90917,-0.63492 2.85513,-0.99064 1.11206,-0.41818 2.21728,-0.86624 3.31504,-1.3441 1.09776,-0.47787 2.18778,-0.98588 3.27009,-1.52343 0.77839,-0.3866 1.5478,-0.80674 2.31768,-1.22421 v -64.42939 a 5.9089484,5.9089484 45 0 0 -5.90895,-5.90895 5.8790464,5.8790464 134.70784 0 0 -5.84899,5.90895 z"
   transform="matrix(1,0,0,0.78299952,0,39.602263)"
   id="path35"
   clip-path="url(#clipPath94)" />
    
    <path
   style="fill:#fefefc;fill-opacity:1;stroke-linejoin:round;paint-order:fill markers stroke"
   d="m 147.75015,167.56755 c 0.7715,-0.55088 1.54269,-1.10199 2.30271,-1.68672 1.00888,-0.77621 2.00753,-1.58208 2.99516,-2.41794 0.98763,-0.83586 1.96432,-1.70123 2.92954,-2.59674 0.89983,-0.83484 1.78764,-1.70128 2.66702,-2.58796 V 90.586822 a 5.4385315,5.4385315 45 0 0 -5.43853,-5.438531 h -0.0174 a 5.4385315,5.4385315 135 0 0 -5.43853,5.438531 z"
   transform="matrix(1,0,0,0.74733446,0,46.576183)"
   id="path51"
   clip-path="url(#clipPath92)" />
  </g><g
         id="layer2"
         style="display:none"
         transform="translate(-9.8705447,-8.512596)" /><g
         id="layer8"
         style="display:inline"
         transform="translate(-9.8705447,-8.512596)">
    <path
   style="fill:none;stroke:#fefefc;stroke-width:3;stroke-linecap:butt;stroke-linejoin:miter;stroke-dasharray:none;stroke-opacity:1"
   d="M 48.394439,102.46896 61.503941,65.518086 94.047691,47.52642"
   id="path47" />
    <path
   style="fill:none;stroke:#fefefc;stroke-width:3;stroke-linecap:butt;stroke-linejoin:miter;stroke-dasharray:none;stroke-opacity:1"
   d="M 95.106024,80.863919 60.974775,66.047253"
   id="path48" />
    <path
   style="fill:none;stroke:#fefefc;stroke-width:3;stroke-linecap:butt;stroke-linejoin:miter;stroke-dasharray:none;stroke-opacity:1"
   d="m 116.80186,59.43267 21.16666,-17.727083 28.31042,18.256249"
   id="path49" />
    <path
   style="fill:none;stroke:#fefefc;stroke-width:3;stroke-linecap:butt;stroke-linejoin:miter;stroke-dasharray:none;stroke-opacity:1"
   d="M 95.370608,81.128503 117.06644,59.961836 149.3456,82.716003"
   id="path50" />
    <path
   style="display:inline;fill:none;stroke:#fefefc;stroke-width:3;stroke-linecap:butt;stroke-linejoin:miter;stroke-dasharray:none;stroke-opacity:1"
   d="m 93.79479,47.624999 43.65625,-5.688541"
   id="path52" />
  </g><g
         id="layer7"
         style="display:inline"
         transform="translate(-9.8705447,-8.512596)">
    <circle
   style="fill:#fefefc;fill-opacity:1;stroke:none;stroke-width:5.29167;stroke-linecap:butt;stroke-linejoin:round;stroke-dasharray:none;stroke-opacity:1;paint-order:fill markers stroke"
   id="path40"
   cx="48.394444"
   cy="101.45602"
   r="9.5249996" />
    <circle
   style="fill:#fefefc;fill-opacity:1;stroke:none;stroke-width:5.29167;stroke-linecap:butt;stroke-linejoin:round;stroke-dasharray:none;stroke-opacity:1;paint-order:fill markers stroke"
   id="path41"
   cx="61.239365"
   cy="65.782669"
   r="7.4083333" />
    <circle
   style="fill:#fefefc;fill-opacity:1;stroke:none;stroke-width:4.5954;stroke-linecap:butt;stroke-linejoin:round;stroke-dasharray:none;stroke-opacity:1;paint-order:fill markers stroke"
   id="path42"
   cx="95.370613"
   cy="80.334755"
   r="8.7312498" />
    <circle
   style="fill:#fefefc;fill-opacity:1;stroke:none;stroke-width:3.175;stroke-linecap:butt;stroke-linejoin:round;stroke-dasharray:none;stroke-opacity:1;paint-order:fill markers stroke"
   id="path43"
   cx="166.01437"
   cy="59.432671"
   r="4.7624998" />
    <circle
   style="fill:#fefefc;fill-opacity:1;stroke:none;stroke-width:4.38821;stroke-linecap:butt;stroke-linejoin:round;stroke-dasharray:none;stroke-opacity:1;paint-order:fill markers stroke"
   id="path44"
   cx="149.08104"
   cy="82.186836"
   r="8.9958334" />
    <circle
   style="fill:#fefefc;fill-opacity:1;stroke:none;stroke-width:5.29167;stroke-linecap:butt;stroke-linejoin:round;stroke-dasharray:none;stroke-opacity:1;paint-order:fill markers stroke"
   id="path45"
   cx="137.70395"
   cy="41.705593"
   r="6.0854168" />
    <circle
   style="fill:#fefefc;fill-opacity:1;stroke:none;stroke-width:3.70417;stroke-linecap:butt;stroke-linejoin:round;stroke-dasharray:none;stroke-opacity:1;paint-order:fill markers stroke"
   id="path46"
   cx="93.783104"
   cy="47.526424"
   r="5.5562501" />
    <circle
   style="fill:#fefefc;fill-opacity:1;stroke:none;stroke-width:5.11528;stroke-linecap:butt;stroke-linejoin:round;stroke-dasharray:none;stroke-opacity:1;paint-order:fill markers stroke"
   id="path46-2"
   cx="116.80185"
   cy="59.432674"
   r="7.6729169" />
  </g></g></g></svg>
