<?xml version="1.0" encoding="UTF-8" standalone="no"?>
<svg
   width="500"
   height="500"
   viewBox="0 0 500 500"
   fill="none"
   version="1.1"
   id="svg7"
   sodipodi:docname="itau-bba.svg"
   inkscape:version="1.4.3 (0d15f75, 2025-12-25)"
   xmlns:inkscape="http://www.inkscape.org/namespaces/inkscape"
   xmlns:sodipodi="http://sodipodi.sourceforge.net/DTD/sodipodi-0.dtd"
   xmlns="http://www.w3.org/2000/svg"
   xmlns:svg="http://www.w3.org/2000/svg">
  <defs
     id="defs7" />
  <sodipodi:namedview
     id="namedview7"
     pagecolor="#ffffff"
     bordercolor="#666666"
     borderopacity="1.0"
     inkscape:showpageshadow="2"
     inkscape:pageopacity="0.0"
     inkscape:pagecheckerboard="0"
     inkscape:deskcolor="#d1d1d1"
     inkscape:export-bgcolor="#000000ff"
     inkscape:zoom="1.1272487"
     inkscape:cx="203.59305"
     inkscape:cy="288.3126"
     inkscape:window-width="1920"
     inkscape:window-height="1009"
     inkscape:window-x="-8"
     inkscape:window-y="-8"
     inkscape:window-maximized="1"
     inkscape:current-layer="svg7" />
  <g
     id="g7"
     transform="matrix(4.4960224,0,0,4.4960224,37.798983,137.59944)">
    <path
       d="m 23.0669,35.0031 c 0,0.9705 0.6718,1.4557 1.7543,1.4557 1.2317,0 2.0902,-0.8958 2.0902,-2.1649 v -0.9331 c -0.1493,-0.0373 -0.5972,-0.0373 -0.8958,-0.0373 -1.9036,0 -2.9487,0.5599 -2.9487,1.6796 z"
       fill="white"
       id="path1"
       style="fill:#ff6200;fill-opacity:1" />
    <path
       d="M 46.3577,7.23328 C 45.8725,4.84448 44.4915,3.27683 41.8041,2.67963 37.4743,1.5972 31.0171,1 24.0373,1 17.0575,1 10.6003,1.5972 6.27061,2.67963 3.5832,3.27683 2.20218,4.84448 1.67963,7.23328 0.709176,11.3764 0,18.0202 0,25 0,31.9798 0.709176,38.6236 1.67963,42.7667 2.16485,45.1555 3.54588,46.7232 6.23328,47.3204 10.563,48.4028 17.0202,49 24,49 c 6.9798,0 13.437,-0.5972 17.7667,-1.6796 2.6501,-0.5972 4.0685,-2.1649 4.5537,-4.5537 C 47.2908,38.6236 48,31.9798 48,25 48,18.0202 47.3282,11.3764 46.3577,7.23328 Z M 34.6003,23.0218 40.4604,21.9767 v 3.0606 H 34.6003 Z M 8.84604,38.6983 H 5.33748 V 26.6423 H 8.84604 Z M 7.09176,25.4106 c -1.23173,0 -2.0902,-0.8212 -2.0902,-2.0156 0,-1.1944 0.85847,-2.0155 2.0902,-2.0155 1.23173,0 2.0902,0.8211 2.0902,2.0155 0,1.1944 -0.85847,2.0156 -2.0902,2.0156 z m 8.39814,3.9938 v 4.9269 c 0,1.269 0.5225,1.8289 1.6423,1.8289 0.5225,0 1.0078,-0.0747 1.2691,-0.1493 v 2.6874 c -0.4106,0.112 -1.1945,0.2239 -2.1649,0.2239 -2.7247,0 -4.2551,-1.4556 -4.2551,-4.367 v -5.1508 h -1.7542 v -2.7621 h 1.7542 v -2.986 l 3.5086,-0.6345 v 3.6205 h 3.0606 v 2.7621 z m 14.7807,9.2939 H 26.986 l -0.0373,-1.2691 c -0.7092,0.9705 -1.7543,1.5677 -3.1353,1.5677 -2.5381,0 -4.1431,-1.4184 -4.1431,-3.6952 0,-2.6127 2.3515,-4.1431 6.0467,-4.1431 0.4479,0 0.8958,0.0374 1.1944,0.0374 0,-1.3064 -0.8958,-2.0529 -2.5381,-2.0529 -1.3064,0 -2.6874,0.3359 -4.0685,0.8585 v -2.8367 c 1.4184,-0.5226 2.8741,-0.8212 4.6283,-0.8212 3.4339,0 5.3375,1.8289 5.3375,5.2628 z m 12.4666,0 h -3.3966 l -0.0373,-1.3064 c -0.7838,1.0824 -1.7916,1.605 -3.2473,1.605 -2.4635,0 -4.0684,-1.7543 -4.0684,-4.5163 v -7.8383 h 3.5085 v 7.2411 c 0,1.4556 0.6345,2.2395 1.7916,2.2395 1.1944,0 1.9036,-0.9332 1.9036,-2.3888 v -7.0918 h 3.5086 v 12.056 z"
       fill="white"
       id="path2"
       style="fill:#ff6200;fill-opacity:1" />
    <path
       d="m 88.6843,26.7543 c -0.5225,-0.112 -1.1944,-0.1493 -1.9036,-0.1493 -0.7091,0 -1.3063,0.0373 -1.8289,0.1493 l -5.748,11.944 h 2.4634 l 1.3064,-2.7247 h 7.577 l 1.3063,2.7247 h 2.5381 z m -4.8522,7.2037 2.4261,-5.3375 c 0.1493,-0.0373 0.3359,-0.0746 0.5599,-0.0746 0.2239,0 0.3732,0.0373 0.5598,0.0746 l 2.4262,5.3375 z"
       fill="white"
       id="path3"
       style="fill:#ff6200;fill-opacity:1" />
    <path
       d="m 76.1058,32.2784 c 1.381,-0.5226 1.9782,-1.381 1.9782,-2.6128 0,-2.2021 -2.0529,-3.2099 -6.1213,-3.2099 -1.7543,0 -3.9938,0.1866 -5.5614,0.4106 V 38.661 h 5.9346 c 4.3671,0 6.42,-1.0825 6.42,-3.4339 0,-1.493 -0.8212,-2.5381 -2.6501,-2.9487 z m -7.465,-3.7325 c 1.0824,-0.1493 2.3141,-0.1866 3.3965,-0.1866 2.5381,0 3.6952,0.4479 3.6952,1.6049 0,1.0825 -0.9331,1.5677 -3.0233,1.5677 h -4.1058 v -2.986 z m 3.6205,8.2488 h -3.5832 v -3.3592 h 4.1057 c 2.6128,0 3.6579,0.5225 3.6579,1.6796 -0.0373,1.1571 -1.1944,1.6796 -4.1804,1.6796 z"
       fill="white"
       id="path4"
       style="fill:#ff6200;fill-opacity:1" />
    <path
       d="m 61.8849,32.2784 c 1.3811,-0.5226 1.9783,-1.381 1.9783,-2.6128 0,-2.2021 -2.0529,-3.2099 -6.1214,-3.2099 -1.7542,0 -3.9937,0.1866 -5.5614,0.4106 V 38.661 h 5.9347 c 4.367,0 6.4199,-1.0825 6.4199,-3.4339 0.0373,-1.493 -0.7838,-2.5381 -2.6501,-2.9487 z m -7.4277,-3.7325 c 1.0825,-0.1493 2.3142,-0.1866 3.3966,-0.1866 2.5381,0 3.6952,0.4479 3.6952,1.6049 0,1.0825 -0.9331,1.5677 -3.0233,1.5677 h -4.1058 v -2.986 z m 3.5833,8.2488 h -3.5833 v -3.3592 h 4.1058 c 2.6128,0 3.6579,0.5225 3.6579,1.6796 -0.0374,1.1571 -1.1944,1.6796 -4.1804,1.6796 z"
       fill="white"
       id="path5"
       style="fill:#ff6200;fill-opacity:1" />
  </g>
</svg>
