<?xml version="1.0" encoding="UTF-8" standalone="no"?>
<svg
   width="500"
   height="500"
   version="1.1"
   id="svg2"
   sodipodi:docname="itau-unibanco.svg"
   inkscape:export-filename="itau-unibanco.webp"
   inkscape:export-xdpi="96"
   inkscape:export-ydpi="96"
   inkscape:version="1.4.3 (0d15f75, 2025-12-25)"
   xmlns:inkscape="http://www.inkscape.org/namespaces/inkscape"
   xmlns:sodipodi="http://sodipodi.sourceforge.net/DTD/sodipodi-0.dtd"
   xmlns="http://www.w3.org/2000/svg"
   xmlns:svg="http://www.w3.org/2000/svg">
  <defs
     id="defs2" />
  <sodipodi:namedview
     id="namedview2"
     pagecolor="#ffffff"
     bordercolor="#666666"
     borderopacity="1.0"
     inkscape:showpageshadow="2"
     inkscape:pageopacity="0.0"
     inkscape:pagecheckerboard="0"
     inkscape:deskcolor="#d1d1d1"
     inkscape:export-bgcolor="#ffffffff"
     inkscape:zoom="1.216"
     inkscape:cx="249.58882"
     inkscape:cy="250"
     inkscape:window-width="1920"
     inkscape:window-height="1009"
     inkscape:window-x="-8"
     inkscape:window-y="-8"
     inkscape:window-maximized="1"
     inkscape:current-layer="svg2" />
  <path
     d="m 226.07868,67.238983 c -10.52997,0.250332 -18.25439,0.620488 -32.41569,1.493596 -6.54984,0.390762 -13.69957,0.96622 -18.73444,1.469937 -1.26387,0.137377 -3.90762,0.390762 -5.86143,0.575458 -8.20677,0.805183 -20.39137,2.343046 -25.5163,3.216918 -1.08223,0.184696 -2.66817,0.43808 -3.56265,0.575458 -0.87387,0.116007 -2.43845,0.389998 -3.4497,0.575458 -1.01048,0.184696 -2.71244,0.506769 -3.79161,0.688412 -3.79543,0.644147 -10.25292,1.955337 -13.90792,2.829209 -1.01354,0.253384 -2.82921,0.688412 -4.02439,0.96622 -1.19595,0.273991 -2.27436,0.527376 -2.41174,0.551035 -6.73835,1.607314 -13.42786,4.850944 -18.576455,9.056978 -5.01198,4.069419 -9.492768,10.643684 -11.746519,17.172158 -0.366339,1.01125 -0.736494,2.04539 -0.849449,2.29878 -0.390762,0.87387 -2.092714,8.22813 -3.312318,14.25365 -0.181644,1.01049 -0.503717,2.50408 -0.688413,3.33293 -0.185459,0.82579 -0.435028,2.27435 -0.596828,3.21691 -0.139667,0.9418 -0.322073,2.09272 -0.438081,2.52775 -0.345733,1.31271 -1.746981,10.27658 -2.644512,16.78215 -0.873109,6.29952 -1.448567,10.8757 -1.952284,15.51753 -0.253384,2.27436 -0.506769,4.50445 -0.551798,4.94253 -0.06869,0.43503 -0.277044,2.66588 -0.48311,4.94329 -0.184696,2.27436 -0.458688,5.05625 -0.599118,6.20716 -0.48311,4.22741 -1.679055,22.64283 -2.274357,35.63185 -0.45945,9.62938 -0.757864,30.25123 -0.596827,41.49327 0.161036,14.02164 0.503716,26.55197 0.82579,30.91904 0.11677,1.76835 0.345732,5.49509 0.48311,8.27622 0.137377,2.78113 0.322073,6.34378 0.43808,7.92972 0.52814,7.95414 0.942561,13.17143 1.147864,14.82606 0.11677,1.01354 0.390762,3.70308 0.575458,5.95378 0.184696,2.25375 0.45945,4.94329 0.575458,5.97744 0.137377,1.0349 0.390762,3.26423 0.572405,4.96695 0.575458,5.447 1.013539,9.00965 1.380642,11.37941 0.184696,1.26387 0.506769,3.42528 0.688412,4.82652 0.667806,5.05625 1.448567,9.97512 2.29878,14.48338 0.184696,1.01049 0.48311,2.7132 0.691465,3.79238 0.390762,2.29801 1.28753,6.8742 1.931677,9.76905 2.205668,10.13997 3.171888,13.17142 5.769082,18.16203 0.712072,1.37759 1.630973,2.9872 2.045395,3.56265 0.389998,0.57546 0.965456,1.40125 1.26387,1.83933 1.31119,1.95305 5.0593,5.76909 7.128354,7.24207 0.34268,0.25034 1.010486,0.73268 1.445514,1.07918 0.462503,0.36634 0.897531,0.64338 1.013539,0.64338 0.09235,0 0.322073,0.16104 0.503716,0.3465 0.897532,0.87311 7.220698,3.88472 9.930848,4.68914 0.50677,0.16104 1.12726,0.36634 1.38064,0.48311 0.59912,0.27476 3.97631,1.12421 8.04649,2.0454 1.77064,0.41442 3.58631,0.84945 4.02211,0.96545 1.0578,0.27476 7.72365,1.60732 12.75929,2.52851 2.89484,0.52738 8.5296,1.42491 12.06783,1.93168 1.33332,0.18164 3.03527,0.43502 3.79314,0.5724 2.78112,0.48311 14.27655,1.81872 21.4942,2.50714 2.59719,0.25338 5.79274,0.5518 7.1253,0.68841 2.1614,0.22972 4.36783,0.41442 14.94206,1.17229 1.58595,0.116 5.19668,0.32207 8.04649,0.46174 2.85058,0.13737 6.82765,0.34344 8.85168,0.45945 16.36697,0.94179 63.17064,0.94179 79.30789,0 2.02403,-0.13738 6.0011,-0.32208 8.85168,-0.45945 4.89521,-0.22897 6.68951,-0.34574 14.3666,-0.9212 9.83774,-0.7571 24.30051,-2.1614 29.19572,-2.84981 1.40125,-0.20607 3.81604,-0.52814 5.40198,-0.7365 5.86143,-0.7571 13.90792,-1.9767 18.50472,-2.82615 5.03564,-0.92119 11.70149,-2.25375 12.76006,-2.52851 0.43503,-0.116 2.2507,-0.55103 4.0221,-0.96545 3.97631,-0.89753 7.426,-1.77064 8.04573,-2.0454 a 133.40858,133.40858 0 0 1 2.29878,-0.80518 c 1.88435,-0.61972 8.13884,-3.58631 8.66621,-4.09308 0.16104,-0.16104 0.62049,-0.50372 1.01125,-0.73649 1.7943,-1.12421 2.62009,-1.76759 4.25412,-3.24058 1.83933,-1.67906 4.39149,-4.43576 5.01121,-5.37832 0.20607,-0.32207 0.75787,-1.10284 1.21656,-1.72332 0.48311,-0.64339 0.87387,-1.21884 0.87387,-1.31119 0,-0.0931 0.36939,-0.7365 0.80442,-1.42567 0.43884,-0.68842 0.96622,-1.70195 1.17534,-2.25375 0.22896,-0.52738 0.45792,-1.10284 0.55103,-1.21579 0.43503,-0.57546 2.0454,-5.15165 2.73381,-7.74884 1.08223,-4.0221 3.1032,-13.5164 3.83969,-18.001 0.1847,-1.14787 0.39077,-2.22704 0.45946,-2.41174 0.20835,-0.50677 1.47298,-8.39222 2.62008,-16.43566 0.25339,-1.77064 0.50677,-3.54128 0.57546,-3.90838 0.18546,-1.05857 1.01125,-8.11518 1.38064,-11.83887 0.18165,-1.83933 0.43503,-3.9557 0.57241,-4.71357 0.14043,-0.76015 0.39076,-3.24057 0.57546,-5.51798 0.18469,-2.27436 0.43808,-5.07991 0.5518,-6.20716 0.13737,-1.14787 0.34573,-3.76796 0.48234,-5.86143 0.13738,-2.09272 0.34574,-4.66549 0.45945,-5.74695 0.13967,-1.07994 0.39077,-5.05701 0.57546,-8.84939 0.20836,-3.79466 0.43808,-8.46091 0.57546,-10.34451 1.03415,-16.71347 1.03415,-60.57421 0,-77.81429 -0.11677,-1.9561 -0.32207,-5.79274 -0.45945,-8.50594 -0.13967,-2.7132 -0.34573,-6.29951 -0.46174,-7.93278 -0.13738,-1.65463 -0.43503,-5.72405 -0.68918,-9.07834 -0.25338,-3.35659 -0.50677,-6.50787 -0.57545,-7.01159 -0.0687,-0.50753 -0.274,-2.73686 -0.45869,-4.94329 -0.1847,-2.20567 -0.39076,-4.27548 -0.45945,-4.59679 -0.0687,-0.32208 -0.32208,-2.43921 -0.57546,-4.71357 -0.5953,-5.49509 -1.33256,-11.56182 -1.4936,-12.2739 -0.0687,-0.32207 -0.32207,-2.1614 -0.57546,-4.04881 -1.12649,-8.59524 -3.21615,-20.57377 -5.01121,-28.73322 -0.25339,-1.15091 -0.66476,-3.01161 -0.91814,-4.1381 -0.64415,-2.94293 -1.4043,-5.90875 -1.65463,-6.43689 -0.11601,-0.25339 -0.32208,-0.87311 -0.48311,-1.37988 -0.50677,-1.69966 -3.05894,-7.378685 -3.70232,-8.276216 -0.0931,-0.137378 -0.82579,-1.216552 -1.61037,-2.411734 -1.63097,-2.459817 -5.81334,-6.82765 -8.32048,-8.666979 -4.9639,-3.654998 -10.48265,-6.138474 -17.60719,-7.885455 a 336.52239,336.52239 0 0 1 -3.67865,-0.921191 c -0.85022,-0.250332 -2.55293,-0.619724 -6.20793,-1.377588 a 302.47191,302.47191 0 0 1 -3.1032,-0.667806 c -4.43652,-1.079175 -18.87411,-3.425273 -28.27453,-4.620456 -1.88741,-0.229725 -3.74734,-0.48311 -4.13811,-0.572405 -0.69146,-0.14043 -4.02439,-0.48311 -10.80395,-1.150916 -1.88742,-0.184696 -4.48385,-0.459451 -5.74772,-0.575458 -1.26387,-0.137377 -3.54128,-0.343443 -5.05624,-0.48311 -1.51802,-0.112955 -4.00073,-0.322073 -5.51799,-0.435028 -5.14936,-0.438081 -19.44728,-1.263871 -27.35639,-1.610367 -15.28856,-0.667043 -43.51806,-0.873109 -61.03366,-0.435028 z M 124.79272,222.56992 c 0.13737,0.11296 0.80518,0.32208 1.46993,0.48235 1.24327,0.29841 2.99025,1.1036 4.29838,1.97671 1.03491,0.68917 3.47336,3.30926 3.95342,4.23045 0.23277,0.45945 0.48311,0.87388 0.5518,0.94256 0.0717,0.0687 0.27704,0.52738 0.46174,1.03415 0.16103,0.50372 0.36633,1.03491 0.48311,1.14786 0.29765,0.43808 0.64414,3.17189 0.64414,5.19668 0,1.9767 -0.30146,4.29838 -0.69146,5.14859 -1.24021,2.84982 -1.83933,3.79162 -3.40162,5.4493 -1.44933,1.4936 -2.04539,1.95305 -4.0221,2.91927 -1.61036,0.80442 -2.76052,1.21884 -3.67866,1.30813 -0.73649,0.0924 -1.38064,0.25339 -1.44933,0.3465 -0.16027,0.27704 -5.14859,0.27704 -5.14859,0 0,-0.0931 -0.57546,-0.25415 -1.31195,-0.3465 -0.71208,-0.0893 -1.60655,-0.29765 -1.99732,-0.45868 a 23.65789,23.65789 0 0 0 -1.51725,-0.62049 c -0.43808,-0.16027 -0.8525,-0.34573 -0.92119,-0.41442 -0.0687,-0.0916 -0.41442,-0.29765 -0.80519,-0.48235 -1.33255,-0.66551 -4.09078,-3.72445 -4.8952,-5.40274 -0.43809,-0.89677 -0.84945,-1.77064 -0.96546,-1.95228 -0.78153,-1.56458 -0.9189,-8.69064 -0.18546,-10.34527 0.20912,-0.43809 0.50677,-1.17153 0.6678,-1.61037 0.16104,-0.43503 0.34574,-0.84945 0.41443,-0.91738 0.0687,-0.0687 0.34344,-0.53119 0.59682,-1.03491 0.43809,-0.8525 3.17189,-3.79466 3.56265,-3.79466 0.0916,0 0.30071,-0.16104 0.46174,-0.36634 0.43503,-0.48387 2.66512,-1.56305 4.02211,-1.90802 0.64338,-0.1618 1.35621,-0.39152 1.6096,-0.50753 0.25338,-0.11295 0.87311,-0.22896 1.37759,-0.29765 1.35622,-0.13738 6.1171,0.0687 6.41552,0.27704 z m 250.47766,16.02124 v 11.60838 h -44.59647 v -15.53813 l 2.48347,-0.39305 c 5.49433,-0.84945 8.9196,-1.42491 9.12567,-1.56228 0.13738,-0.0923 1.26387,-0.27476 2.52774,-0.43503 1.26387,-0.16104 2.41479,-0.37016 2.52851,-0.46251 0.13966,-0.0893 1.21884,-0.29765 2.41478,-0.45868 1.19519,-0.13738 2.75747,-0.41442 3.4497,-0.59683 0.68841,-0.16027 2.13698,-0.41442 3.21615,-0.55104 1.08223,-0.14043 2.16141,-0.34573 2.41479,-0.43884 0.25338,-0.11296 1.40125,-0.32131 2.5285,-0.48235 1.15016,-0.13737 2.4354,-0.34344 2.87348,-0.48311 0.43503,-0.11372 2.09271,-0.43503 3.67866,-0.68917 1.5867,-0.25339 3.65576,-0.5953 4.59756,-0.7571 0.94179,-0.1847 1.95304,-0.32208 2.25146,-0.34574 l 0.506,-0.0237 z m -190.3423,10.25216 v 13.77055 h 22.9878 v 20.46081 h -23.00917 l 0.0901,21.31027 c 0.071,22.9649 0.0229,21.83764 1.26693,24.6638 0.94179,2.18582 3.60691,4.41515 5.90569,4.96695 0.39076,0.0924 0.82885,0.27475 1.01354,0.41442 0.43503,0.34344 9.74615,0.34344 10.16058,-0.0237 0.18164,-0.13738 1.01048,-0.32207 1.88359,-0.41442 l 1.54168,-0.16104 v 20.1624 l -0.62278,0.27476 c -0.5724,0.25262 -3.21692,0.66704 -6.84825,1.10283 -5.17226,0.59912 -14.59939,0.66781 -15.15119,0.0916 -0.13738,-0.11296 -0.50372,-0.2053 -0.84945,-0.2053 -0.89753,0 -4.62122,-0.69147 -4.89826,-0.89754 -0.13738,-0.0916 -0.7571,-0.32207 -1.40125,-0.45868 -0.61972,-0.16104 -1.24021,-0.37016 -1.37988,-0.45945 -0.11372,-0.11601 -0.64109,-0.32208 -1.14786,-0.48311 -0.50677,-0.16028 -0.96622,-0.3694 -1.03491,-0.43808 -0.0687,-0.0687 -0.48311,-0.32208 -0.92119,-0.57546 -1.90802,-1.01049 -2.48042,-1.37683 -3.49396,-2.23009 -0.59607,-0.48235 -1.14787,-0.89372 -1.26387,-0.89372 -0.22973,-0.0244 -1.97671,-1.93244 -3.3543,-3.67866 -1.0578,-1.35698 -2.62314,-3.95341 -3.15128,-5.28902 -0.1847,-0.43503 -0.39,-0.85021 -0.45869,-0.9189 -0.0923,-0.0687 -0.32207,-0.78076 -0.5518,-1.60961 -0.20835,-0.82579 -0.48311,-1.69966 -0.59911,-1.95304 -0.11296,-0.25339 -0.39076,-1.28753 -0.57241,-2.29802 a 110.12008,110.12008 0 0 0 -0.62277,-2.87424 c -0.16104,-0.68841 -0.27476,-8.78298 -0.34345,-24.09139 l -0.0916,-23.03359 H 144.6987 v -20.46081 h 13.33552 v -23.17326 l 1.56152,-0.16027 c 0.85021,-0.0901 1.65463,-0.25109 1.77064,-0.34344 0.13738,-0.0924 1.26463,-0.29765 2.5285,-0.45945 1.26387,-0.16028 2.41479,-0.39305 2.52851,-0.48235 0.13737,-0.0924 1.58594,-0.3465 3.2192,-0.5518 1.65464,-0.23278 3.10397,-0.48311 3.21692,-0.57546 0.13738,-0.0923 0.89753,-0.25338 1.72332,-0.32207 a 37.945889,37.945889 0 0 0 3.21997,-0.52738 c 2.45982,-0.50677 6.7582,-1.17533 6.96427,-1.05856 0.0923,0.045 0.16027,6.29951 0.16027,13.88349 z m 76.20699,11.58549 c 3.21691,0.18469 6.85131,0.59911 7.1253,0.80518 0.13737,0.0916 0.68917,0.25338 1.26463,0.32207 1.31119,0.20836 4.5075,1.15016 6.43613,1.93092 1.61036,0.64491 5.19667,2.43615 5.74771,2.89866 0.18546,0.13737 0.59682,0.41137 0.9189,0.55103 0.32131,0.16104 1.33561,0.96317 2.22933,1.74775 0.89753,0.80442 1.72637,1.49359 1.83932,1.53786 0.3465,0.16104 4.43653,5.12799 4.43653,5.40198 0,0.0687 0.20912,0.43884 0.4625,0.78152 0.48235,0.69147 2.52774,4.66854 2.52774,4.92192 0,0.0893 0.1847,0.59607 0.43503,1.12421 0.22973,0.53043 0.50677,1.33561 0.59988,1.77064 0.0916,0.43808 0.25339,0.89753 0.34268,1.03414 0.0916,0.11677 0.3007,0.85022 0.46174,1.61037 0.13738,0.7571 0.32207,1.54168 0.39076,1.72332 0.0924,0.1847 0.29765,1.17152 0.48311,2.18506 0.27476,1.51726 0.34268,7.24131 0.43503,32.57368 l 0.0924,30.75724 h -25.07898 l -0.0229,-2.71244 c -0.0244,-1.46993 -0.0931,-3.60768 -0.18546,-4.73493 l -0.13738,-2.0683 -0.66704,0.91814 c -1.05551,1.4043 -4.52887,4.71281 -5.90646,5.63171 -3.0139,1.97899 -3.81603,2.45905 -4.64488,2.73686 -0.50676,0.13737 -1.17152,0.41442 -1.49359,0.5953 -0.34573,0.1618 -1.19518,0.43884 -1.88665,0.57622 -0.68917,0.16027 -1.37759,0.36939 -1.4936,0.45869 -1.17152,0.87387 -15.6549,0.8525 -16.78215,-0.0206 -0.11296,-0.0924 -0.9418,-0.29765 -1.83933,-0.45945 -0.87311,-0.16027 -1.90802,-0.41442 -2.29802,-0.59912 -0.36634,-0.16027 -1.35698,-0.57546 -2.15911,-0.89753 a 32.375241,32.375241 0 0 1 -2.71244,-1.33256 38.05808,38.05808 0 0 0 -1.86375,-1.07917 c -0.96546,-0.53043 -1.28753,-0.82885 -3.90762,-3.4497 -2.68954,-2.68878 -3.03527,-3.05512 -3.03527,-3.3085 0,-0.0924 -0.29842,-0.59912 -0.6411,-1.12726 -0.37015,-0.52737 -0.89753,-1.49359 -1.17534,-2.11637 -0.27399,-0.64109 -0.64338,-1.40125 -0.80442,-1.72332 -0.18164,-0.32207 -0.43503,-1.14786 -0.59606,-1.83933 -0.16104,-0.68918 -0.36634,-1.37759 -0.45945,-1.4936 -0.25339,-0.32207 -0.69147,-3.58707 -0.69147,-5.01198 0,-0.66399 -0.11295,-1.33256 -0.25033,-1.46917 -0.27704,-0.27781 -0.20912,-1.19595 0.50372,-6.73835 0.13737,-1.07918 0.34573,-2.0683 0.43808,-2.18201 0.0923,-0.13738 0.29765,-0.7365 0.43503,-1.35622 0.29841,-1.19595 0.92195,-2.75823 1.56533,-3.93281 0.20607,-0.39 0.48082,-0.91814 0.62049,-1.19518 0.13738,-0.29765 0.32207,-0.52738 0.43503,-0.52738 0.0923,0 0.16103,-0.13737 0.16103,-0.29841 0,-0.25339 2.52851,-3.54128 2.96659,-3.83969 0.0916,-0.0687 0.25339,-0.29766 0.32207,-0.52814 0.0916,-0.25339 0.36634,-0.48235 0.61973,-0.55104 0.25338,-0.0687 0.45945,-0.20912 0.45945,-0.30147 0,-0.22896 3.86335,-3.26423 5.17225,-4.0221 0.9418,-0.57469 3.05894,-1.65387 6.13848,-3.12686 0.43808,-0.22896 4.73417,-1.60731 6.62158,-2.13698 0.68841,-0.20606 2.04539,-0.48387 2.98719,-0.62048 0.9418,-0.16104 1.83933,-0.34574 1.95534,-0.43503 0.13738,-0.0931 1.51496,-0.30147 3.10396,-0.43884 1.58595,-0.13738 3.53899,-0.36634 4.36707,-0.48311 3.265,-0.48235 14.73371,-0.39 15.95332,0.11677 0.41442,0.18164 0.43503,0.0916 0.27475,-1.86376 -0.0901,-1.12649 -0.25109,-2.09271 -0.34344,-2.1614 -0.11601,-0.0687 -0.25339,-0.50371 -0.34573,-0.96545 -0.16104,-0.85022 -1.03491,-2.71015 -1.8607,-3.97708 -0.53043,-0.80213 -2.76052,-3.10396 -3.01391,-3.10396 -0.0893,0 -0.48005,-0.22896 -0.87311,-0.52738 -1.01124,-0.73649 -2.64146,-1.46993 -3.63133,-1.65463 -0.48311,-0.0924 -0.87388,-0.25338 -0.87388,-0.34573 0,-1.01049 -14.84972,-1.17152 -19.30913,-0.18241 -0.57546,0.11372 -1.90802,0.36634 -2.98796,0.5518 -1.08223,0.18164 -2.1614,0.43503 -2.41479,0.5518 -0.25338,0.11295 -1.07917,0.32207 -1.83932,0.45869 -0.75711,0.13737 -1.58595,0.34573 -1.83933,0.45945 -0.25339,0.11601 -1.17153,0.36939 -2.0454,0.57546 -0.87311,0.20606 -1.70195,0.43502 -1.83933,0.55103 -0.13737,0.0931 -0.7571,0.32207 -1.40125,0.48311 -0.61972,0.16104 -1.26387,0.39076 -1.37987,0.48311 -0.13738,0.0923 -0.75787,0.29765 -1.38064,0.45945 -0.6411,0.13738 -1.53863,0.45869 -1.99732,0.68841 -0.48311,0.25339 -0.92119,0.43809 -0.98988,0.43809 -0.0687,0 -0.116,-4.80592 -0.116,-10.66659 0,-8.29987 0.071,-10.71237 0.3007,-10.89706 0.16104,-0.13738 0.80518,-0.36634 1.42491,-0.52738 0.64414,-0.13738 1.26463,-0.34573 1.37759,-0.43808 0.14043,-0.0924 0.89753,-0.36634 1.72637,-0.57546 0.82579,-0.22973 1.60655,-0.48082 1.72332,-0.5724 0.13738,-0.11678 0.84945,-0.30147 1.58594,-0.45946 0.76016,-0.16027 1.54168,-0.36939 1.72333,-0.48311 0.20835,-0.0916 1.15015,-0.34573 2.09271,-0.55103 a 44.991052,44.991052 0 0 0 2.18506,-0.48311 c 0.25033,-0.0717 1.53863,-0.27705 2.87119,-0.4625 1.33561,-0.18165 2.73686,-0.43503 3.1032,-0.55104 1.33561,-0.41213 13.37978,-1.17152 16.09298,-1.01049 0.7571,0.0443 2.41479,0.13738 3.67866,0.20607 z m -126.78166,47.93321 v 45.74434 h -26.89389 v -91.49249 h 26.89389 z m 203.21607,-17.2439 c 0,27.21902 0.11601,32.48438 0.66781,33.22011 0.11295,0.11372 0.25338,0.57241 0.34573,1.01125 0.32208,1.72256 1.81567,4.23046 3.51457,5.93012 0.89753,0.92043 1.90802,1.72485 2.23009,1.81491 0.34573,0.0717 0.59912,0.20912 0.59912,0.30146 0,0.0893 0.80518,0.41137 1.79201,0.73268 1.47299,0.46251 2.25375,0.5518 4.55253,0.5518 1.61037,0 3.01085,-0.11295 3.33292,-0.25033 0.29765,-0.16027 1.01049,-0.39076 1.58595,-0.5518 0.57546,-0.16027 1.61036,-0.64338 2.29878,-1.10589 1.28753,-0.82579 3.67865,-3.03145 3.67865,-3.40161 0,-0.11295 0.32208,-0.61972 0.68918,-1.10283 0.39,-0.50677 0.69147,-1.01049 0.69147,-1.14787 0,-0.14043 0.20606,-0.62277 0.43502,-1.08222 0.25339,-0.45945 0.52814,-1.24022 0.62049,-1.72333 0.0687,-0.50676 0.22896,-1.01048 0.34573,-1.12649 0.57546,-0.73649 0.66781,-5.37832 0.66781,-32.34471 v -28.2295 h 26.89389 v 91.49325 h -12.73487 c -9.95222,0 -12.80509,-0.0687 -12.9417,-0.29841 -0.0931,-0.13738 -0.20607,-2.32244 -0.25339,-4.82729 -0.0458,-2.48271 -0.16104,-4.5281 -0.25109,-4.5281 -0.0916,0 -0.3694,0.27475 -0.64339,0.61972 -1.28829,1.74775 -3.31232,3.72445 -6.4842,6.34454 -0.45945,0.36634 -1.40125,0.87311 -3.47031,1.88436 -0.94256,0.45869 -1.9767,0.98912 -2.29878,1.15015 -0.32207,0.16104 -1.19518,0.41442 -1.9561,0.57546 -0.7571,0.16104 -1.4249,0.36634 -1.49359,0.45945 -0.22896,0.34344 -4.29838,0.68841 -8.32048,0.68841 -3.95342,0 -7.17262,-0.27475 -8.11518,-0.6678 -0.25339,-0.11296 -1.1265,-0.39 -1.95534,-0.59607 -0.82579,-0.20606 -1.58594,-0.48311 -1.72332,-0.57546 -0.11296,-0.0923 -0.66476,-0.32207 -1.19518,-0.48311 -0.5518,-0.13737 -0.98683,-0.34268 -0.98683,-0.43502 0,-0.0924 -0.41442,-0.29765 -0.92119,-0.45945 -0.50372,-0.16028 -0.9189,-0.3694 -0.9189,-0.46174 0,-0.0893 -0.25339,-0.27476 -0.55104,-0.41214 -1.9767,-0.89676 -6.46055,-5.10356 -8.3449,-7.816 -1.15092,-1.65463 -2.92156,-4.96695 -3.2879,-6.1835 -0.13738,-0.48311 -0.41442,-1.19518 -0.57546,-1.56458 -0.16103,-0.39076 -0.43503,-1.21655 -0.57546,-1.83932 -0.13737,-0.6411 -0.34344,-1.30967 -0.45945,-1.53863 -0.11295,-0.20912 -0.32207,-1.28829 -0.45868,-2.41479 -0.13738,-1.10359 -0.39077,-2.23009 -0.52814,-2.48347 -0.20836,-0.34345 -0.30071,-8.55097 -0.34574,-33.05679 l -0.0687,-32.57367 h 26.91831 z m 0,0"
     style="fill:#ff6200;fill-opacity:1;fill-rule:nonzero;stroke:none;stroke-width:0.763207"
     id="path1" />
  <path
     d="m 258.14482,313.44193 c -1.12344,0.11372 -2.27436,0.29765 -2.52774,0.41213 -0.25339,0.13967 -1.07918,0.34497 -1.83933,0.50601 -0.73344,0.13737 -1.72332,0.41442 -2.18277,0.62048 -3.4497,1.4936 -5.12723,2.48348 -6.27509,3.67866 -1.1036,1.15092 -2.20948,3.28866 -2.39113,4.62122 -0.0481,0.45869 -0.20912,1.0578 -0.34573,1.3089 -0.25338,0.53043 -0.16104,2.1614 0.25339,4.29838 0.45868,2.32244 2.29877,5.15165 3.92898,6.00186 2.8979,1.4936 3.4497,1.72256 5.06007,1.97671 2.89408,0.43502 8.41283,0.18469 9.60801,-0.45945 0.20607,-0.11601 1.05857,-0.50677 1.88436,-0.87388 0.82884,-0.38999 1.90802,-1.01353 2.41479,-1.4043 0.50676,-0.39 1.07917,-0.84945 1.28753,-1.01048 1.3089,-0.98683 3.72445,-4.98756 4.04576,-6.64219 0.0687,-0.41442 0.25338,-0.89753 0.39076,-1.08223 0.16027,-0.20607 0.27475,-2.32244 0.32207,-6.11482 l 0.0916,-5.79274 -1.24251,-0.13661 c -1.67905,-0.20836 -9.95221,-0.13738 -12.48301,0.0924 z m 0,0"
     style="fill:#ff6200;fill-opacity:1;fill-rule:nonzero;stroke:none;stroke-width:0.763207"
     id="path2" />
</svg>
