<svg xmlns="http://www.w3.org/2000/svg" xmlns:xlink="http://www.w3.org/1999/xlink" width="259" zoomAndPan="magnify" viewBox="0 0 194.25 56.249996" height="75" preserveAspectRatio="xMidYMid meet" version="1.0"><defs><clipPath id="5b94c76838"><path d="M 62 32 L 64 32 L 64 55.015625 L 62 55.015625 Z M 62 32 " clip-rule="nonzero"/></clipPath><clipPath id="c54352b26e"><path d="M 80 32 L 82 32 L 82 55.015625 L 80 55.015625 Z M 80 32 " clip-rule="nonzero"/></clipPath><clipPath id="bdd8142600"><path d="M 115 32 L 116 32 L 116 55.015625 L 115 55.015625 Z M 115 32 " clip-rule="nonzero"/></clipPath><clipPath id="1caae3b109"><path d="M 131 32 L 133 32 L 133 55.015625 L 131 55.015625 Z M 131 32 " clip-rule="nonzero"/></clipPath></defs><path fill="#000000" d="M 9.367188 22.730469 L 9.320312 22.730469 C 9.136719 22.730469 9 22.625 8.90625 22.414062 L 8.90625 11.359375 L 8.929688 0.308594 C 9.082031 0.109375 9.226562 0.0117188 9.367188 0.0117188 C 9.5625 0.0117188 9.714844 0.125 9.824219 0.351562 L 9.824219 22.414062 C 9.703125 22.625 9.5625 22.730469 9.410156 22.730469 Z M 9.367188 22.730469 " fill-opacity="1" fill-rule="nonzero"/><path fill="#000000" d="M 13.304688 13.488281 C 13.304688 11.957031 13.886719 10.5 15.046875 9.121094 C 16.207031 7.738281 17.511719 7.042969 18.964844 7.027344 C 19.742188 7.027344 20.429688 7.398438 21.023438 8.140625 C 21.269531 7.6875 21.621094 7.460938 22.078125 7.460938 C 22.277344 7.460938 22.453125 7.519531 22.605469 7.640625 C 22.757812 7.761719 22.835938 7.914062 22.835938 8.097656 C 22.835938 8.292969 22.550781 9.507812 21.988281 11.734375 C 21.421875 13.964844 21.132812 15.222656 21.117188 15.511719 C 21.117188 15.890625 21.167969 16.140625 21.277344 16.261719 C 21.382812 16.382812 21.542969 16.449219 21.757812 16.464844 C 21.894531 16.449219 22.046875 16.382812 22.214844 16.261719 C 22.535156 15.957031 22.851562 15.230469 23.15625 14.078125 C 23.246094 13.773438 23.324219 13.617188 23.382812 13.601562 C 23.414062 13.585938 23.492188 13.578125 23.613281 13.578125 L 23.703125 13.578125 C 23.996094 13.578125 24.140625 13.644531 24.140625 13.78125 C 24.140625 13.875 24.101562 14.078125 24.027344 14.394531 C 23.949219 14.714844 23.796875 15.125 23.566406 15.625 C 23.339844 16.125 23.09375 16.503906 22.835938 16.761719 C 22.636719 16.957031 22.390625 17.117188 22.101562 17.238281 C 21.980469 17.269531 21.796875 17.285156 21.550781 17.285156 C 21.03125 17.285156 20.597656 17.171875 20.246094 16.945312 C 19.894531 16.714844 19.664062 16.480469 19.558594 16.238281 L 19.421875 15.898438 C 19.40625 15.882812 19.375 15.890625 19.328125 15.921875 C 19.300781 15.949219 19.269531 15.980469 19.238281 16.011719 C 18.335938 16.859375 17.421875 17.285156 16.488281 17.285156 C 15.648438 17.285156 14.910156 16.980469 14.265625 16.375 C 13.625 15.769531 13.304688 14.804688 13.304688 13.488281 Z M 20.589844 9.597656 C 20.589844 9.507812 20.550781 9.339844 20.476562 9.097656 C 20.398438 8.855469 20.222656 8.589844 19.949219 8.300781 C 19.671875 8.011719 19.320312 7.863281 18.894531 7.847656 C 18.359375 7.847656 17.847656 8.082031 17.359375 8.550781 C 16.871094 9.019531 16.488281 9.636719 16.214844 10.394531 C 15.773438 11.589844 15.457031 12.835938 15.273438 14.125 C 15.273438 14.167969 15.273438 14.253906 15.273438 14.375 C 15.273438 14.496094 15.265625 14.585938 15.253906 14.644531 C 15.253906 15.328125 15.390625 15.796875 15.664062 16.054688 C 15.941406 16.3125 16.269531 16.449219 16.648438 16.464844 C 17.230469 16.464844 17.800781 16.214844 18.367188 15.714844 C 18.933594 15.214844 19.269531 14.828125 19.375 14.554688 C 19.40625 14.496094 19.613281 13.683594 19.992188 12.121094 C 20.375 10.558594 20.574219 9.71875 20.589844 9.597656 Z M 20.589844 9.597656 " fill-opacity="1" fill-rule="nonzero"/><path fill="#000000" d="M 27.851562 22.730469 L 27.804688 22.730469 C 27.621094 22.730469 27.484375 22.625 27.394531 22.414062 L 27.394531 11.359375 L 27.414062 0.308594 C 27.570312 0.109375 27.714844 0.0117188 27.851562 0.0117188 C 28.050781 0.0117188 28.203125 0.125 28.308594 0.351562 L 28.308594 22.414062 C 28.1875 22.625 28.050781 22.730469 27.898438 22.730469 Z M 27.851562 22.730469 " fill-opacity="1" fill-rule="nonzero"/><path fill="#000000" d="M 37.40625 11.667969 C 37.40625 11.667969 37.40625 11.570312 37.40625 11.371094 C 37.40625 11.175781 37.515625 11.023438 37.726562 10.917969 L 44.578125 10.917969 L 44.578125 7.503906 L 44.601562 4.09375 C 44.753906 3.898438 44.898438 3.796875 45.035156 3.796875 C 45.234375 3.796875 45.386719 3.910156 45.492188 4.140625 L 45.492188 10.917969 L 52.320312 10.917969 C 52.546875 11.039062 52.664062 11.191406 52.664062 11.371094 C 52.664062 11.554688 52.546875 11.703125 52.320312 11.828125 L 45.492188 11.828125 L 45.492188 18.605469 C 45.371094 18.816406 45.234375 18.921875 45.082031 18.921875 L 44.988281 18.921875 C 44.804688 18.921875 44.667969 18.816406 44.578125 18.605469 L 44.578125 11.828125 L 37.726562 11.828125 C 37.515625 11.71875 37.40625 11.570312 37.40625 11.371094 Z M 37.40625 11.667969 " fill-opacity="1" fill-rule="nonzero"/><path fill="#000000" d="M 62.21875 22.730469 L 62.175781 22.730469 C 61.992188 22.730469 61.851562 22.625 61.761719 22.414062 L 61.761719 11.359375 L 61.785156 0.308594 C 61.9375 0.109375 62.082031 0.0117188 62.21875 0.0117188 C 62.417969 0.0117188 62.570312 0.125 62.679688 0.351562 L 62.679688 22.414062 C 62.554688 22.625 62.417969 22.730469 62.265625 22.730469 Z M 62.21875 22.730469 " fill-opacity="1" fill-rule="nonzero"/><path fill="#000000" d="M 67.078125 2.34375 C 67.078125 2.191406 67.105469 2.015625 67.167969 1.820312 C 67.230469 1.621094 67.320312 1.523438 67.441406 1.523438 C 67.457031 1.523438 68.007812 1.484375 69.09375 1.410156 C 70.175781 1.335938 70.734375 1.289062 70.765625 1.273438 C 70.949219 1.273438 71.039062 1.34375 71.039062 1.476562 C 71.039062 1.613281 70.78125 2.699219 70.261719 4.730469 C 70.136719 5.246094 70.007812 5.777344 69.871094 6.324219 C 69.734375 6.867188 69.617188 7.277344 69.527344 7.550781 L 69.4375 7.984375 C 69.4375 8.027344 69.480469 8.003906 69.574219 7.914062 C 70.320312 7.308594 71.09375 7.003906 71.886719 7.003906 C 72.832031 7.003906 73.597656 7.355469 74.175781 8.050781 C 74.757812 8.75 75.054688 9.628906 75.070312 10.6875 C 75.070312 12.371094 74.46875 13.894531 73.261719 15.261719 C 72.054688 16.625 70.757812 17.308594 69.367188 17.308594 C 68.601562 17.308594 67.910156 17.019531 67.28125 16.441406 C 66.65625 15.867188 66.335938 14.933594 66.320312 13.644531 L 66.320312 13.441406 C 66.320312 13.121094 66.382812 12.683594 66.503906 12.121094 C 66.625 11.5625 67 10.066406 67.625 7.640625 C 68.390625 4.65625 68.769531 3.070312 68.769531 2.886719 C 68.769531 2.707031 68.480469 2.601562 67.902344 2.570312 C 67.824219 2.570312 67.761719 2.570312 67.71875 2.570312 L 67.601562 2.570312 C 67.449219 2.570312 67.351562 2.570312 67.304688 2.570312 C 67.257812 2.570312 67.207031 2.546875 67.144531 2.5 C 67.082031 2.457031 67.0625 2.402344 67.078125 2.34375 Z M 73.101562 9.664062 L 73.101562 9.53125 C 73.101562 8.40625 72.636719 7.847656 71.703125 7.847656 C 71.445312 7.847656 71.175781 7.90625 70.902344 8.027344 C 70.625 8.148438 70.375 8.308594 70.144531 8.507812 C 69.917969 8.703125 69.71875 8.886719 69.550781 9.050781 C 69.382812 9.21875 69.246094 9.386719 69.136719 9.550781 L 69 9.734375 L 68.519531 11.691406 C 68.183594 12.992188 68.015625 13.917969 68.015625 14.464844 C 68.015625 15.191406 68.199219 15.738281 68.566406 16.101562 C 68.808594 16.34375 69.113281 16.464844 69.480469 16.464844 C 69.984375 16.464844 70.496094 16.222656 71.015625 15.738281 C 71.398438 15.390625 71.703125 14.964844 71.933594 14.464844 C 72.160156 13.964844 72.414062 13.167969 72.6875 12.078125 C 72.964844 10.984375 73.101562 10.179688 73.101562 9.664062 Z M 73.101562 9.664062 " fill-opacity="1" fill-rule="nonzero"/><path fill="#000000" d="M 78.414062 22.730469 L 78.367188 22.730469 C 78.1875 22.730469 78.046875 22.625 77.957031 22.414062 L 77.957031 11.359375 L 77.980469 0.308594 C 78.132812 0.109375 78.277344 0.0117188 78.414062 0.0117188 C 78.613281 0.0117188 78.765625 0.125 78.875 0.351562 L 78.875 22.414062 C 78.75 22.625 78.613281 22.730469 78.460938 22.730469 Z M 78.414062 22.730469 " fill-opacity="1" fill-rule="nonzero"/><path fill="#000000" d="M 88.617188 11.667969 C 88.617188 11.667969 88.617188 11.570312 88.617188 11.371094 C 88.617188 11.175781 88.722656 11.023438 88.9375 10.917969 L 102.246094 10.917969 C 102.472656 11.039062 102.589844 11.191406 102.589844 11.371094 C 102.589844 11.554688 102.472656 11.703125 102.246094 11.828125 L 88.9375 11.828125 C 88.722656 11.71875 88.617188 11.570312 88.617188 11.371094 Z M 88.617188 11.667969 " fill-opacity="1" fill-rule="nonzero"/><path fill="#000000" d="M 110.5625 16.011719 L 110.886719 16.011719 C 111.480469 16.011719 111.839844 15.90625 111.960938 15.691406 L 111.960938 15.511719 C 111.960938 15.375 111.960938 15.199219 111.960938 14.988281 C 111.960938 14.773438 111.960938 14.523438 111.960938 14.238281 C 111.960938 13.949219 111.96875 13.621094 111.984375 13.257812 C 112 12.894531 112 12.515625 111.984375 12.121094 C 111.96875 11.726562 111.96875 11.3125 111.984375 10.871094 C 112 10.429688 112 10 111.984375 9.574219 C 111.984375 9.015625 111.984375 8.421875 111.984375 7.800781 C 111.984375 7.179688 111.984375 6.609375 111.984375 6.09375 C 111.984375 5.578125 111.984375 5.125 111.984375 4.730469 C 111.984375 4.335938 111.976562 4.003906 111.960938 3.730469 C 111.945312 3.457031 111.945312 3.328125 111.960938 3.34375 C 111.914062 3.054688 111.808594 2.867188 111.640625 2.773438 C 111.472656 2.683594 111.128906 2.617188 110.609375 2.570312 L 110.199219 2.570312 L 110.199219 2.046875 C 110.199219 1.699219 110.214844 1.523438 110.242188 1.523438 L 110.472656 1.5 C 110.625 1.484375 110.847656 1.472656 111.136719 1.457031 C 111.425781 1.441406 111.710938 1.425781 111.984375 1.410156 C 112.246094 1.394531 112.527344 1.378906 112.832031 1.363281 C 113.136719 1.347656 113.367188 1.328125 113.519531 1.296875 C 113.671875 1.265625 113.757812 1.257812 113.769531 1.273438 L 113.839844 1.273438 L 113.839844 8.4375 C 113.839844 13.242188 113.847656 15.664062 113.863281 15.691406 C 113.925781 15.8125 114.015625 15.898438 114.136719 15.941406 C 114.457031 15.988281 114.832031 16.011719 115.261719 16.011719 L 115.625 16.011719 L 115.625 17.058594 L 115.445312 17.058594 L 114.917969 17.035156 C 114.566406 17.019531 114.191406 17.011719 113.792969 17.011719 C 113.398438 17.011719 113.105469 17.003906 112.921875 16.988281 C 112.742188 16.972656 112.449219 16.972656 112.054688 16.988281 C 111.65625 17.003906 111.273438 17.019531 110.90625 17.035156 L 110.382812 17.058594 L 110.199219 17.058594 L 110.199219 16.011719 Z M 110.5625 16.011719 " fill-opacity="1" fill-rule="nonzero"/><path fill="#000000" d="M 116.613281 12.097656 C 116.613281 11.265625 116.765625 10.507812 117.070312 9.824219 C 117.375 9.144531 117.757812 8.589844 118.214844 8.164062 C 118.671875 7.738281 119.167969 7.421875 119.703125 7.210938 C 120.238281 6.996094 120.742188 6.882812 121.214844 6.867188 C 122.023438 6.867188 122.71875 7.003906 123.300781 7.277344 C 123.878906 7.550781 124.324219 7.929688 124.628906 8.414062 C 124.933594 8.898438 125.148438 9.386719 125.269531 9.871094 C 125.390625 10.355469 125.460938 10.894531 125.476562 11.484375 C 125.476562 11.589844 125.421875 11.699219 125.316406 11.804688 L 118.855469 11.804688 L 118.855469 12.144531 C 118.855469 14.390625 119.621094 15.753906 121.148438 16.238281 C 121.453125 16.328125 121.789062 16.375 122.15625 16.375 C 122.796875 16.375 123.347656 16.132812 123.804688 15.648438 C 124.0625 15.390625 124.269531 15.070312 124.421875 14.691406 L 124.652344 14.144531 C 124.699219 14.101562 124.820312 14.078125 125.019531 14.078125 L 125.085938 14.078125 C 125.347656 14.078125 125.476562 14.152344 125.476562 14.304688 C 125.476562 14.367188 125.453125 14.464844 125.40625 14.601562 C 125.117188 15.433594 124.636719 16.09375 123.964844 16.578125 C 123.292969 17.066406 122.535156 17.308594 121.695312 17.308594 C 120.246094 17.308594 119.039062 16.785156 118.078125 15.738281 C 117.117188 14.691406 116.628906 13.480469 116.613281 12.097656 Z M 123.597656 10.804688 C 123.429688 8.863281 122.703125 7.832031 121.421875 7.710938 L 121.375 7.710938 C 121.253906 7.710938 121.132812 7.71875 121.007812 7.734375 C 120.886719 7.746094 120.695312 7.808594 120.4375 7.914062 C 120.175781 8.019531 119.957031 8.179688 119.773438 8.390625 C 119.589844 8.605469 119.414062 8.914062 119.246094 9.324219 C 119.078125 9.734375 118.957031 10.234375 118.878906 10.824219 L 118.878906 10.984375 L 123.597656 10.984375 Z M 123.597656 10.804688 " fill-opacity="1" fill-rule="nonzero"/><path fill="#000000" d="M 133.882812 7.253906 C 133.976562 7.285156 134.617188 7.300781 135.808594 7.300781 C 136.679688 7.300781 137.296875 7.285156 137.664062 7.253906 L 137.777344 7.253906 L 137.777344 8.300781 L 137.527344 8.300781 C 136.640625 8.363281 136.074219 8.664062 135.832031 9.210938 C 135.800781 9.273438 135.289062 10.582031 134.296875 13.144531 C 133.304688 15.707031 132.785156 17.027344 132.738281 17.101562 C 132.660156 17.238281 132.46875 17.308594 132.164062 17.308594 C 131.875 17.308594 131.691406 17.238281 131.617188 17.101562 C 129.476562 11.628906 128.402344 8.855469 128.386719 8.777344 C 128.308594 8.566406 128.1875 8.4375 128.019531 8.390625 C 127.851562 8.347656 127.554688 8.316406 127.125 8.300781 L 126.574219 8.300781 L 126.574219 7.253906 L 126.714844 7.253906 L 126.898438 7.277344 C 127.019531 7.277344 127.171875 7.277344 127.355469 7.277344 C 127.539062 7.277344 127.738281 7.277344 127.949219 7.277344 C 128.164062 7.277344 128.355469 7.285156 128.523438 7.300781 C 128.691406 7.316406 128.828125 7.324219 128.933594 7.324219 C 130.386719 7.324219 131.226562 7.300781 131.457031 7.253906 L 131.636719 7.253906 L 131.636719 8.300781 L 131.316406 8.300781 C 130.722656 8.316406 130.402344 8.429688 130.355469 8.640625 C 130.355469 8.703125 130.746094 9.734375 131.523438 11.734375 L 132.691406 14.738281 L 134.777344 9.300781 L 134.777344 9.121094 C 134.777344 8.90625 134.699219 8.734375 134.546875 8.597656 C 134.394531 8.460938 134.257812 8.378906 134.136719 8.347656 C 134.011719 8.316406 133.90625 8.300781 133.816406 8.300781 L 133.722656 8.300781 L 133.722656 7.253906 Z M 133.882812 7.253906 " fill-opacity="1" fill-rule="nonzero"/><path fill="#000000" d="M 140.390625 11.371094 C 140.390625 10.324219 140.464844 9.332031 140.617188 8.390625 C 140.769531 7.453125 140.945312 6.640625 141.144531 5.957031 C 141.34375 5.277344 141.625 4.609375 141.992188 3.957031 C 142.359375 3.304688 142.648438 2.796875 142.863281 2.433594 C 143.078125 2.070312 143.398438 1.675781 143.824219 1.25 C 144.253906 0.828125 144.503906 0.570312 144.582031 0.476562 C 144.65625 0.386719 144.847656 0.226562 145.152344 0 L 145.542969 0 C 145.757812 0 145.863281 0.0664062 145.863281 0.203125 C 145.863281 0.25 145.734375 0.410156 145.472656 0.683594 C 145.214844 0.957031 144.902344 1.355469 144.535156 1.886719 C 144.167969 2.417969 143.792969 3.070312 143.414062 3.84375 C 143.03125 4.617188 142.710938 5.664062 142.449219 6.980469 C 142.191406 8.300781 142.0625 9.765625 142.0625 11.371094 C 142.0625 12.980469 142.191406 14.433594 142.449219 15.738281 C 142.710938 17.042969 143.023438 18.097656 143.390625 18.898438 C 143.757812 19.703125 144.128906 20.355469 144.511719 20.855469 C 144.894531 21.355469 145.214844 21.757812 145.472656 22.0625 C 145.734375 22.363281 145.863281 22.523438 145.863281 22.539062 C 145.863281 22.675781 145.75 22.742188 145.519531 22.742188 L 145.152344 22.742188 L 144.511719 22.195312 C 143.078125 20.910156 142.03125 19.300781 141.375 17.375 C 140.71875 15.449219 140.390625 13.449219 140.390625 11.371094 Z M 140.390625 11.371094 " fill-opacity="1" fill-rule="nonzero"/><path fill="#000000" d="M 147.902344 13.488281 C 147.902344 11.957031 148.480469 10.5 149.644531 9.121094 C 150.804688 7.738281 152.109375 7.042969 153.558594 7.027344 C 154.339844 7.027344 155.027344 7.398438 155.621094 8.140625 C 155.867188 7.6875 156.21875 7.460938 156.675781 7.460938 C 156.875 7.460938 157.050781 7.519531 157.203125 7.640625 C 157.355469 7.761719 157.429688 7.914062 157.429688 8.097656 C 157.429688 8.292969 157.148438 9.507812 156.582031 11.734375 C 156.019531 13.964844 155.726562 15.222656 155.714844 15.511719 C 155.714844 15.890625 155.765625 16.140625 155.875 16.261719 C 155.980469 16.382812 156.140625 16.449219 156.355469 16.464844 C 156.492188 16.449219 156.644531 16.382812 156.8125 16.261719 C 157.132812 15.957031 157.445312 15.230469 157.75 14.078125 C 157.84375 13.773438 157.917969 13.617188 157.980469 13.601562 C 158.011719 13.585938 158.089844 13.578125 158.210938 13.578125 L 158.300781 13.578125 C 158.59375 13.578125 158.738281 13.644531 158.738281 13.78125 C 158.738281 13.875 158.699219 14.078125 158.621094 14.394531 C 158.546875 14.714844 158.394531 15.125 158.164062 15.625 C 157.933594 16.125 157.691406 16.503906 157.429688 16.761719 C 157.234375 16.957031 156.988281 17.117188 156.699219 17.238281 C 156.574219 17.269531 156.394531 17.285156 156.148438 17.285156 C 155.628906 17.285156 155.195312 17.171875 154.84375 16.945312 C 154.492188 16.714844 154.261719 16.480469 154.15625 16.238281 L 154.019531 15.898438 C 154.003906 15.882812 153.972656 15.890625 153.925781 15.921875 C 153.894531 15.949219 153.867188 15.980469 153.835938 16.011719 C 152.933594 16.859375 152.019531 17.285156 151.085938 17.285156 C 150.246094 17.285156 149.503906 16.980469 148.863281 16.375 C 148.222656 15.769531 147.902344 14.804688 147.902344 13.488281 Z M 155.1875 9.597656 C 155.1875 9.507812 155.148438 9.339844 155.070312 9.097656 C 154.996094 8.855469 154.820312 8.589844 154.546875 8.300781 C 154.269531 8.011719 153.917969 7.863281 153.492188 7.847656 C 152.957031 7.847656 152.445312 8.082031 151.957031 8.550781 C 151.46875 9.019531 151.085938 9.636719 150.8125 10.394531 C 150.367188 11.589844 150.054688 12.835938 149.871094 14.125 C 149.871094 14.167969 149.871094 14.253906 149.871094 14.375 C 149.871094 14.496094 149.863281 14.585938 149.847656 14.644531 C 149.847656 15.328125 149.988281 15.796875 150.261719 16.054688 C 150.535156 16.3125 150.863281 16.449219 151.246094 16.464844 C 151.828125 16.464844 152.398438 16.214844 152.964844 15.714844 C 153.53125 15.214844 153.867188 14.828125 153.972656 14.554688 C 154.003906 14.496094 154.210938 13.683594 154.589844 12.121094 C 154.972656 10.558594 155.171875 9.71875 155.1875 9.597656 Z M 155.1875 9.597656 " fill-opacity="1" fill-rule="nonzero"/><path fill="#000000" d="M 161.050781 16.261719 C 161.050781 16.261719 161.050781 16.070312 161.050781 15.691406 C 161.050781 15.3125 161.171875 14.988281 161.417969 14.714844 C 161.660156 14.441406 161.988281 14.304688 162.402344 14.304688 C 162.828125 14.304688 163.210938 14.496094 163.546875 14.875 C 163.882812 15.253906 164.058594 15.921875 164.074219 16.875 C 164.074219 17.40625 164.003906 17.921875 163.867188 18.421875 C 163.730469 18.921875 163.570312 19.355469 163.386719 19.71875 C 163.203125 20.082031 163.003906 20.394531 162.792969 20.652344 C 162.578125 20.910156 162.394531 21.113281 162.242188 21.265625 C 162.089844 21.417969 161.988281 21.484375 161.945312 21.46875 C 161.882812 21.46875 161.785156 21.402344 161.644531 21.265625 C 161.507812 21.128906 161.441406 21.03125 161.441406 20.96875 C 161.441406 20.910156 161.523438 20.785156 161.691406 20.605469 C 161.859375 20.421875 162.050781 20.195312 162.265625 19.921875 C 162.476562 19.648438 162.675781 19.269531 162.859375 18.785156 C 163.042969 18.300781 163.164062 17.746094 163.226562 17.125 L 163.226562 16.851562 L 163.203125 16.875 C 163.171875 16.890625 163.136719 16.90625 163.089844 16.921875 C 163.042969 16.9375 162.996094 16.957031 162.953125 16.988281 C 162.90625 17.019531 162.835938 17.035156 162.746094 17.035156 C 162.652344 17.035156 162.5625 17.042969 162.46875 17.058594 C 162.058594 17.058594 161.722656 16.929688 161.460938 16.671875 Z M 161.050781 16.261719 " fill-opacity="1" fill-rule="nonzero"/><path fill="#000000" d="M 171.121094 2.34375 C 171.121094 2.191406 171.152344 2.015625 171.214844 1.820312 C 171.273438 1.621094 171.367188 1.523438 171.488281 1.523438 C 171.503906 1.523438 172.054688 1.484375 173.136719 1.410156 C 174.222656 1.335938 174.78125 1.289062 174.808594 1.273438 C 174.992188 1.273438 175.085938 1.34375 175.085938 1.476562 C 175.085938 1.613281 174.824219 2.699219 174.304688 4.730469 C 174.183594 5.246094 174.054688 5.777344 173.917969 6.324219 C 173.78125 6.867188 173.664062 7.277344 173.574219 7.550781 L 173.480469 7.984375 C 173.480469 8.027344 173.527344 8.003906 173.621094 7.914062 C 174.367188 7.308594 175.140625 7.003906 175.933594 7.003906 C 176.878906 7.003906 177.644531 7.355469 178.222656 8.050781 C 178.804688 8.75 179.101562 9.628906 179.117188 10.6875 C 179.117188 12.371094 178.515625 13.894531 177.308594 15.261719 C 176.101562 16.625 174.804688 17.308594 173.414062 17.308594 C 172.648438 17.308594 171.953125 17.019531 171.328125 16.441406 C 170.703125 15.867188 170.382812 14.933594 170.367188 13.644531 L 170.367188 13.441406 C 170.367188 13.121094 170.425781 12.683594 170.550781 12.121094 C 170.671875 11.5625 171.046875 10.066406 171.671875 7.640625 C 172.4375 4.65625 172.816406 3.070312 172.816406 2.886719 C 172.816406 2.707031 172.527344 2.601562 171.945312 2.570312 C 171.871094 2.570312 171.808594 2.570312 171.765625 2.570312 L 171.648438 2.570312 C 171.496094 2.570312 171.398438 2.570312 171.351562 2.570312 C 171.304688 2.570312 171.253906 2.546875 171.191406 2.5 C 171.128906 2.457031 171.105469 2.402344 171.121094 2.34375 Z M 177.148438 9.664062 L 177.148438 9.53125 C 177.148438 8.40625 176.679688 7.847656 175.75 7.847656 C 175.488281 7.847656 175.222656 7.90625 174.949219 8.027344 C 174.671875 8.148438 174.421875 8.308594 174.191406 8.507812 C 173.964844 8.703125 173.765625 8.886719 173.597656 9.050781 C 173.429688 9.21875 173.289062 9.386719 173.183594 9.550781 L 173.046875 9.734375 L 172.566406 11.691406 C 172.230469 12.992188 172.0625 13.917969 172.0625 14.464844 C 172.0625 15.191406 172.246094 15.738281 172.613281 16.101562 C 172.855469 16.34375 173.160156 16.464844 173.527344 16.464844 C 174.03125 16.464844 174.542969 16.222656 175.0625 15.738281 C 175.445312 15.390625 175.75 14.964844 175.980469 14.464844 C 176.207031 13.964844 176.460938 13.167969 176.734375 12.078125 C 177.007812 10.984375 177.148438 10.179688 177.148438 9.664062 Z M 177.148438 9.664062 " fill-opacity="1" fill-rule="nonzero"/><path fill="#000000" d="M 180.652344 0.0234375 L 180.742188 0 C 180.820312 0 180.894531 0 180.972656 0 L 181.246094 0 L 181.886719 0.546875 C 183.324219 1.835938 184.371094 3.441406 185.027344 5.367188 C 185.683594 7.292969 186.011719 9.292969 186.011719 11.371094 C 186.011719 12.402344 185.933594 13.394531 185.78125 14.351562 C 185.628906 15.304688 185.453125 16.117188 185.257812 16.785156 C 185.058594 17.453125 184.773438 18.117188 184.410156 18.785156 C 184.042969 19.453125 183.75 19.960938 183.539062 20.308594 C 183.324219 20.65625 183.011719 21.042969 182.597656 21.46875 C 182.1875 21.894531 181.941406 22.144531 181.867188 22.21875 C 181.789062 22.296875 181.613281 22.441406 181.339844 22.652344 C 181.292969 22.699219 181.261719 22.726562 181.246094 22.742188 L 180.972656 22.742188 C 180.851562 22.742188 180.765625 22.742188 180.71875 22.742188 C 180.675781 22.742188 180.636719 22.71875 180.605469 22.675781 C 180.574219 22.628906 180.550781 22.5625 180.539062 22.46875 C 180.550781 22.453125 180.636719 22.355469 180.789062 22.175781 C 183.15625 19.734375 184.339844 16.132812 184.339844 11.371094 C 184.339844 6.609375 183.15625 3.007812 180.789062 0.570312 C 180.636719 0.386719 180.550781 0.289062 180.539062 0.273438 C 180.539062 0.152344 180.574219 0.0664062 180.652344 0.0234375 Z M 180.652344 0.0234375 " fill-opacity="1" fill-rule="nonzero"/><g clip-path="url(#5b94c76838)"><path fill="#000000" d="M 62.660156 55.015625 L 62.613281 55.015625 C 62.429688 55.015625 62.292969 54.910156 62.203125 54.695312 L 62.203125 43.644531 L 62.222656 32.589844 C 62.378906 32.394531 62.523438 32.296875 62.660156 32.296875 C 62.859375 32.296875 63.011719 32.410156 63.117188 32.636719 L 63.117188 54.695312 C 62.996094 54.910156 62.859375 55.015625 62.707031 55.015625 Z M 62.660156 55.015625 " fill-opacity="1" fill-rule="nonzero"/></g><path fill="#000000" d="M 66.601562 45.769531 C 66.601562 44.238281 67.179688 42.785156 68.339844 41.402344 C 69.5 40.023438 70.808594 39.328125 72.257812 39.3125 C 73.035156 39.3125 73.722656 39.683594 74.320312 40.425781 C 74.5625 39.972656 74.914062 39.742188 75.371094 39.742188 C 75.570312 39.742188 75.746094 39.804688 75.898438 39.925781 C 76.050781 40.046875 76.128906 40.199219 76.128906 40.378906 C 76.128906 40.578125 75.847656 41.789062 75.28125 44.019531 C 74.714844 46.246094 74.425781 47.507812 74.410156 47.792969 C 74.410156 48.171875 74.464844 48.421875 74.570312 48.542969 C 74.679688 48.667969 74.839844 48.734375 75.050781 48.75 C 75.191406 48.734375 75.34375 48.667969 75.511719 48.542969 C 75.832031 48.242188 76.144531 47.515625 76.449219 46.363281 C 76.542969 46.058594 76.617188 45.898438 76.679688 45.882812 C 76.710938 45.867188 76.785156 45.859375 76.90625 45.859375 L 77 45.859375 C 77.289062 45.859375 77.433594 45.929688 77.433594 46.066406 C 77.433594 46.15625 77.394531 46.363281 77.320312 46.679688 C 77.242188 47 77.089844 47.40625 76.863281 47.90625 C 76.632812 48.410156 76.386719 48.789062 76.128906 49.046875 C 75.929688 49.242188 75.6875 49.402344 75.394531 49.523438 C 75.273438 49.554688 75.089844 49.566406 74.847656 49.566406 C 74.328125 49.566406 73.890625 49.453125 73.539062 49.226562 C 73.1875 49 72.960938 48.765625 72.851562 48.523438 L 72.714844 48.179688 C 72.699219 48.164062 72.671875 48.171875 72.625 48.203125 C 72.59375 48.234375 72.5625 48.265625 72.53125 48.292969 C 71.632812 49.144531 70.714844 49.566406 69.785156 49.566406 C 68.945312 49.566406 68.203125 49.265625 67.5625 48.660156 C 66.921875 48.050781 66.601562 47.089844 66.601562 45.769531 Z M 73.882812 41.882812 C 73.882812 41.789062 73.847656 41.625 73.769531 41.378906 C 73.691406 41.136719 73.515625 40.871094 73.242188 40.585938 C 72.96875 40.296875 72.617188 40.144531 72.1875 40.128906 C 71.65625 40.128906 71.144531 40.363281 70.652344 40.835938 C 70.164062 41.304688 69.785156 41.917969 69.507812 42.675781 C 69.066406 43.875 68.753906 45.117188 68.570312 46.40625 C 68.570312 46.453125 68.570312 46.535156 68.570312 46.65625 C 68.570312 46.777344 68.5625 46.871094 68.546875 46.929688 C 68.546875 47.613281 68.683594 48.082031 68.960938 48.339844 C 69.234375 48.597656 69.5625 48.734375 69.945312 48.75 C 70.523438 48.75 71.097656 48.5 71.660156 48 C 72.226562 47.5 72.5625 47.113281 72.671875 46.839844 C 72.699219 46.777344 72.90625 45.96875 73.289062 44.40625 C 73.671875 42.84375 73.867188 42.003906 73.882812 41.882812 Z M 73.882812 41.882812 " fill-opacity="1" fill-rule="nonzero"/><g clip-path="url(#c54352b26e)"><path fill="#000000" d="M 81.144531 55.015625 L 81.097656 55.015625 C 80.917969 55.015625 80.777344 54.910156 80.6875 54.695312 L 80.6875 43.644531 L 80.710938 32.589844 C 80.863281 32.394531 81.007812 32.296875 81.144531 32.296875 C 81.34375 32.296875 81.496094 32.410156 81.605469 32.636719 L 81.605469 54.695312 C 81.480469 54.910156 81.34375 55.015625 81.191406 55.015625 Z M 81.144531 55.015625 " fill-opacity="1" fill-rule="nonzero"/></g><path fill="#000000" d="M 90.703125 43.949219 C 90.703125 43.949219 90.703125 43.851562 90.703125 43.65625 C 90.703125 43.457031 90.808594 43.304688 91.023438 43.199219 L 97.871094 43.199219 L 97.871094 39.789062 L 97.894531 36.378906 C 98.046875 36.179688 98.191406 36.082031 98.328125 36.082031 C 98.527344 36.082031 98.679688 36.195312 98.789062 36.421875 L 98.789062 43.199219 L 105.613281 43.199219 C 105.84375 43.320312 105.957031 43.472656 105.957031 43.65625 C 105.957031 43.835938 105.84375 43.988281 105.613281 44.109375 L 98.789062 44.109375 L 98.789062 50.886719 C 98.664062 51.101562 98.527344 51.207031 98.375 51.207031 L 98.285156 51.207031 C 98.101562 51.207031 97.964844 51.101562 97.871094 50.886719 L 97.871094 44.109375 L 91.023438 44.109375 C 90.808594 44.003906 90.703125 43.851562 90.703125 43.65625 Z M 90.703125 43.949219 " fill-opacity="1" fill-rule="nonzero"/><g clip-path="url(#bdd8142600)"><path fill="#000000" d="M 115.515625 55.015625 L 115.46875 55.015625 C 115.285156 55.015625 115.148438 54.910156 115.054688 54.695312 L 115.054688 43.644531 L 115.078125 32.589844 C 115.230469 32.394531 115.378906 32.296875 115.515625 32.296875 C 115.714844 32.296875 115.867188 32.410156 115.972656 32.636719 L 115.972656 54.695312 C 115.851562 54.910156 115.714844 55.015625 115.558594 55.015625 Z M 115.515625 55.015625 " fill-opacity="1" fill-rule="nonzero"/></g><path fill="#000000" d="M 120.371094 34.625 C 120.371094 34.472656 120.402344 34.300781 120.460938 34.101562 C 120.523438 33.90625 120.613281 33.808594 120.738281 33.808594 C 120.753906 33.808594 121.300781 33.769531 122.386719 33.695312 C 123.46875 33.617188 124.027344 33.574219 124.058594 33.558594 C 124.242188 33.558594 124.332031 33.625 124.332031 33.761719 C 124.332031 33.898438 124.074219 34.984375 123.554688 37.015625 C 123.433594 37.53125 123.300781 38.058594 123.164062 38.605469 C 123.027344 39.152344 122.914062 39.5625 122.820312 39.835938 L 122.730469 40.265625 C 122.730469 40.3125 122.777344 40.289062 122.867188 40.199219 C 123.617188 39.589844 124.386719 39.289062 125.179688 39.289062 C 126.128906 39.289062 126.890625 39.636719 127.472656 40.335938 C 128.050781 41.03125 128.351562 41.910156 128.363281 42.972656 C 128.363281 44.65625 127.761719 46.179688 126.554688 47.542969 C 125.347656 48.910156 124.050781 49.589844 122.660156 49.589844 C 121.898438 49.589844 121.203125 49.304688 120.578125 48.726562 C 119.949219 48.152344 119.628906 47.21875 119.613281 45.929688 L 119.613281 45.726562 C 119.613281 45.40625 119.675781 44.964844 119.796875 44.40625 C 119.921875 43.84375 120.292969 42.351562 120.921875 39.925781 C 121.683594 36.9375 122.066406 35.355469 122.066406 35.171875 C 122.066406 34.988281 121.777344 34.882812 121.195312 34.855469 C 121.117188 34.855469 121.058594 34.855469 121.011719 34.855469 L 120.898438 34.855469 C 120.746094 34.855469 120.644531 34.855469 120.601562 34.855469 C 120.554688 34.855469 120.5 34.832031 120.4375 34.785156 C 120.378906 34.738281 120.355469 34.6875 120.371094 34.625 Z M 126.394531 41.949219 L 126.394531 41.8125 C 126.394531 40.691406 125.929688 40.128906 124.996094 40.128906 C 124.738281 40.128906 124.472656 40.191406 124.195312 40.3125 C 123.921875 40.433594 123.667969 40.59375 123.441406 40.789062 C 123.210938 40.988281 123.011719 41.167969 122.84375 41.335938 C 122.675781 41.503906 122.539062 41.667969 122.433594 41.835938 L 122.292969 42.019531 L 121.8125 43.972656 C 121.476562 45.277344 121.308594 46.203125 121.308594 46.75 C 121.308594 47.476562 121.492188 48.023438 121.859375 48.386719 C 122.105469 48.628906 122.410156 48.75 122.777344 48.75 C 123.28125 48.75 123.792969 48.507812 124.3125 48.023438 C 124.691406 47.671875 124.996094 47.25 125.226562 46.75 C 125.457031 46.246094 125.707031 45.453125 125.984375 44.359375 C 126.257812 43.269531 126.394531 42.464844 126.394531 41.949219 Z M 126.394531 41.949219 " fill-opacity="1" fill-rule="nonzero"/><g clip-path="url(#1caae3b109)"><path fill="#000000" d="M 131.710938 55.015625 L 131.664062 55.015625 C 131.480469 55.015625 131.34375 54.910156 131.25 54.695312 L 131.25 43.644531 L 131.273438 32.589844 C 131.425781 32.394531 131.570312 32.296875 131.710938 32.296875 C 131.90625 32.296875 132.0625 32.410156 132.167969 32.636719 L 132.167969 54.695312 C 132.046875 54.910156 131.90625 55.015625 131.753906 55.015625 Z M 131.710938 55.015625 " fill-opacity="1" fill-rule="nonzero"/></g><path fill="#000000" d="M 3.890625 28.203125 L 190.480469 28.203125 L 190.480469 26.835938 L 3.890625 26.835938 Z M 3.890625 28.203125 " fill-opacity="1" fill-rule="nonzero"/></svg>