<?xml version="1.0" encoding="UTF-8" standalone="no"?>
<!-- Created with Inkscape (http://www.inkscape.org/) -->
<svg xmlns:inkscape="http://www.inkscape.org/namespaces/inkscape" xmlns:sodipodi="http://sodipodi.sourceforge.net/DTD/sodipodi-0.dtd" xmlns="http://www.w3.org/2000/svg" xmlns:svg="http://www.w3.org/2000/svg" width="126.26483mm" height="155.35703mm" viewBox="0 0 126.26483 155.35703" version="1.1" id="svg1" xml:space="preserve">
  <defs id="defs1"></defs>
  <g inkscape:label="Camada 1" inkscape:groupmode="layer" id="layer1" transform="translate(-10.949853,-129.03027)">
    <path style="fill:#000000" d="m 77.603282,284.07188 c 0.049,-0.20546 1.16067,-3.13433 2.47036,-6.50859 2.37646,-6.12267 2.38278,-6.13487 3.14153,-6.06105 0.73698,0.0717 0.82814,0.25642 2.9745,6.02709 1.21781,3.27422 2.28534,6.16983 2.37228,6.43468 0.13482,0.41073 0.0281,0.4691 -0.72554,0.39688 -0.81957,-0.0786 -0.92432,-0.19973 -1.44548,-1.67218 l -0.56188,-1.5875 h -2.71916 -2.71915 l -0.59056,1.5875 c -0.53737,1.44451 -0.66692,1.59512 -1.43828,1.67212 -0.6236,0.0623 -0.82416,-0.0141 -0.75862,-0.28895 z m 7.56885,-4.75661 c -0.0646,-0.1819 -0.51463,-1.49485 -1.00002,-2.91766 -0.48538,-1.42282 -0.96692,-2.49438 -1.07007,-2.38125 -0.10315,0.11312 -0.57581,1.27724 -1.05036,2.58693 -0.47454,1.30969 -0.91811,2.53008 -0.98571,2.71198 -0.0921,0.24772 0.42259,0.33073 2.05038,0.33073 1.6249,0 2.14363,-0.0834 2.05578,-0.33073 z M 41.772125,280.946 c -0.256354,-0.14927 -0.755775,-0.84305 -1.109823,-1.54174 -0.354049,-0.69868 -0.927712,-1.61472 -1.274808,-2.03565 -0.855562,-1.03754 -1.037552,-1.62931 -0.696854,-2.26592 0.220909,-0.41277 0.479569,-0.50901 1.123531,-0.41802 0.460104,0.065 1.044912,0.20861 1.299574,0.31911 0.378078,0.16406 0.463021,0.0661 0.463021,-0.53416 0,-0.40429 0.163714,-0.92305 0.363809,-1.15279 0.245639,-0.28203 0.422835,-1.55035 0.545532,-3.90477 l 0.181722,-3.48706 -1.273136,-0.17216 c -3.534419,-0.47794 -7.315551,-1.94093 -9.127015,-3.53141 -0.520976,-0.45743 -1.033553,-0.83168 -1.139061,-0.83168 -0.105509,0 -1.280416,1.15045 -2.610905,2.55655 -1.405226,1.48508 -3.88834,3.6581 -5.9248,5.1849 -1.928151,1.4456 -3.50573,2.67859 -3.50573,2.73998 0,0.0614 0.590338,0.0907 1.311862,0.0652 1.467259,-0.0519 2.127722,0.32905 2.127722,1.22734 0,0.94258 -0.609371,1.23186 -3.643041,1.72945 -3.375629,0.55367 -3.870085,0.39624 -4.160845,-1.32475 -0.146631,-0.8679 -0.02061,-1.45955 0.664362,-3.11913 1.52833,-3.70291 2.17571,-4.39857 3.366925,-3.61806 0.666133,0.43647 0.717964,1.08903 0.187747,2.36374 -0.123882,0.29783 0.64053,-0.21329 1.748517,-1.16913 2.255153,-1.94548 8.450085,-8.24051 8.450585,-8.58713 1.83e-4,-0.12719 -0.466053,-1.16307 -1.036081,-2.30195 -0.897794,-1.79373 -1.21466,-2.8198 -1.762009,-5.70567 -0.09942,-0.52417 -0.317553,-0.57775 -2.953939,-0.72555 -1.565628,-0.0878 -3.918159,-0.26241 -5.227846,-0.38811 -1.309688,-0.12569 -2.419785,-0.19722 -2.466883,-0.15896 -0.0471,0.0383 0.280324,0.57476 0.727604,1.19221 1.284644,1.7734 0.98746,3.60084 -0.549448,3.37866 -0.340646,-0.0492 -0.9764,-0.59892 -1.477064,-1.27708 -0.483451,-0.65484 -1.483158,-1.94076 -2.221571,-2.8576 -1.204291,-1.49528 -1.324853,-1.76141 -1.170557,-2.58389 0.160757,-0.8569 0.361349,-1.01186 3.065247,-2.36792 3.00138,-1.50525 3.791562,-1.69396 4.604342,-1.09964 0.622454,0.45515 0.622454,1.75254 0,2.20769 -0.42004,0.30714 -0.282674,0.35383 1.091406,0.37097 0.864558,0.0108 2.107705,0.10196 2.762549,0.20262 0.654843,0.10065 1.812894,0.0724 2.573445,-0.0627 l 1.38282,-0.24573 0.425716,-1.46441 c 0.38339,-1.31882 1.273661,-3.24445 2.341202,-5.06395 0.21345,-0.36381 0.459771,-0.99914 0.54738,-1.41185 0.157866,-0.74368 0.560037,-1.19243 2.374167,-2.64911 1.365561,-1.09649 1.235242,-1.61537 -0.94218,-3.75135 -1.634518,-1.60341 -5.535461,-6.4262 -6.912815,-8.54642 -0.477668,-0.73529 -1.206668,-1.36836 -1.575722,-1.36836 -0.117707,0 -0.214013,0.71163 -0.214013,1.5814 0,1.39487 -0.07802,1.63253 -0.661459,2.01481 -0.608496,0.3987 -0.713429,0.39935 -1.310552,0.008 -0.720505,-0.47209 -0.842262,-0.9857 -1.042621,-4.39806 -0.07263,-1.23692 -0.281445,-2.88925 -0.46404,-3.67184 -0.31828,-1.36412 -0.306727,-1.44334 0.279735,-1.91823 0.801115,-0.6487 1.304601,-0.62499 2.846469,0.13405 0.70318,0.34616 2.447436,1.13657 3.876124,1.75646 2.722608,1.1813 3.693898,2.04562 3.192335,2.84077 -0.470049,0.74518 -1.303918,0.85662 -2.322961,0.31045 -1.116649,-0.59849 -1.22684,-0.28319 -0.342882,0.98112 2.346859,3.35666 4.347084,5.85461 6.353942,7.93503 l 2.334298,2.41985 1.50216,-0.39691 c 0.826188,-0.21831 2.514191,-0.59821 3.751118,-0.84424 l 2.248959,-0.44732 0.0214,-2.1022 c 0.01177,-1.15621 0.105675,-3.0547 0.208673,-4.21886 l 0.187271,-2.11667 -0.576902,0.9668 c -1.020824,1.71076 -2.653889,1.89087 -3.044199,0.33575 -0.13349,-0.53186 0.188029,-1.20022 1.591185,-3.30768 1.805362,-2.71155 2.902435,-3.68064 4.168736,-3.68242 0.757096,-0.001 1.419353,0.66542 2.657335,2.67429 0.393572,0.63865 1.095476,1.6617 1.559788,2.27344 0.81804,1.07779 0.830524,1.13314 0.402795,1.78594 -0.66943,1.02168 -1.630795,0.88735 -2.854298,-0.39882 -0.658468,-0.69219 -1.062076,-0.9502 -1.138228,-0.7276 -0.279902,0.81815 -0.685515,6.6078 -0.523453,7.47166 0.190715,1.0166 0.232834,1.0383 2.621163,1.35002 3.017282,0.39381 6.918325,2.53498 8.89972,4.8848 l 1.077818,1.27823 0.969554,-0.56773 c 0.533256,-0.31225 1.982383,-1.23634 3.220283,-2.05353 1.237901,-0.8172 2.821134,-1.73813 3.518295,-2.04651 0.697162,-0.30839 1.575625,-0.80303 1.952141,-1.0992 0.376516,-0.29616 0.891507,-0.53848 1.144426,-0.53848 0.252915,0 1.026955,-0.25086 1.720085,-0.55746 1.3997,-0.61916 1.24487,-1.01765 -0.39922,-1.02746 -1.24283,-0.007 -2.800457,-0.45959 -3.298361,-0.95749 -0.576832,-0.57684 -0.508147,-1.61753 0.129271,-1.95867 0.719478,-0.38505 3.17103,-0.11846 6.60868,0.71866 3.20008,0.77926 3.80199,1.16457 3.62711,2.32185 -0.1581,1.04614 -2.75698,8.32577 -3.13497,8.78122 -0.36404,0.43864 -1.60162,0.45987 -2.02673,0.0348 -0.50288,-0.50289 -0.37275,-1.97884 0.35147,-3.98656 0.36793,-1.01999 0.62485,-1.89866 0.57093,-1.95258 -0.0909,-0.0909 -2.9851,1.20097 -3.88573,1.73436 -0.21828,0.12927 -0.930884,0.45553 -1.583563,0.72501 -0.652678,0.26949 -2.603947,1.41271 -4.336154,2.5405 -1.732207,1.12778 -3.299625,2.05052 -3.483153,2.05052 -0.239765,0 -0.156855,0.50847 0.294565,1.80653 1.291266,3.71304 1.273129,8.31353 -0.04786,12.14079 -0.668344,1.93636 -0.673794,2.00441 -0.197349,2.46385 1.428491,1.37753 6.546534,5.79859 6.623564,5.72156 0.04937,-0.0494 -0.0901,-0.59956 -0.30993,-1.22264 -0.219835,-0.62308 -0.3997,-1.28799 -0.3997,-1.47759 0,-0.51105 0.758554,-1.17625 1.341329,-1.17625 0.595408,0 2.085484,2.20112 2.093224,3.09209 0.003,0.3182 0.24232,1.56836 0.53234,2.77812 0.64346,2.68404 0.64334,2.48414 0.002,3.12562 -0.47851,0.47851 -0.881948,0.52917 -4.214438,0.52917 -2.997465,0 -3.762866,-0.0776 -4.101041,-0.41578 -0.960235,-0.96023 -0.290643,-1.81033 1.755712,-2.22901 0.915735,-0.18735 1.750994,-0.41574 1.856131,-0.50752 0.105137,-0.0918 -1.004872,-1.17624 -2.466687,-2.40989 -1.461815,-1.23366 -3.105318,-2.62879 -3.652229,-3.10029 l -0.994382,-0.85729 -1.057275,1.29972 c -2.457405,3.02092 -5.814738,5.13547 -9.615377,6.05607 l -1.984375,0.48065 -0.163856,1.96615 c -0.255983,3.0716 -0.256412,6.33177 -8.33e-4,6.33177 0.127703,0 0.380406,-0.17859 0.561564,-0.39688 0.699616,-0.84298 2.38125,-0.19855 2.38125,0.91255 0,0.26283 -0.183623,0.63026 -0.40805,0.81652 -0.540303,0.44841 -2.76695,3.7767 -2.76695,4.13591 0,0.15475 -0.246767,0.59508 -0.548371,0.97851 -0.579898,0.73722 -1.579474,0.90564 -2.43127,0.40964 z m 5.08431,-18.3591 c 4.980049,-1.3253 8.775738,-5.03829 10.616027,-10.38473 2.399184,-6.97015 -1.201471,-15.11248 -7.69629,-17.40399 -1.724074,-0.60829 -4.51247,-0.94284 -6.300609,-0.75594 -1.536734,0.16062 -1.556611,0.17303 -1.064859,0.66478 0.840092,0.84009 0.259655,1.38179 -2.180378,2.03486 -3.402958,0.91079 -5.426491,2.00255 -7.38962,3.98691 -2.467917,2.49461 -3.199277,4.13501 -3.536013,7.93111 -0.229937,2.59213 -0.203315,3.25718 0.190642,4.7625 1.130532,4.31978 4.790855,7.90335 9.353925,9.15777 1.738666,0.47797 6.222241,0.48174 8.007175,0.007 z m 69.465115,-1.69255 c -5.27106,-1.51974 -9.62914,-5.72388 -11.28013,-10.88168 -0.76859,-2.40116 -0.93667,-6.21633 -0.37849,-8.59165 0.98067,-4.1732 3.47146,-7.70429 7.21769,-10.23222 2.43484,-1.64302 4.36463,-2.33757 7.04007,-2.53383 l 2.06996,-0.15183 -0.21788,-1.34993 c -0.11983,-0.74245 -0.1779,-6.29101 -0.12904,-12.33013 0.11038,-13.64251 -0.17588,-17.20168 -2.5749,-32.01458 -2.40192,-14.83077 -2.93061,-19.95139 -2.93528,-28.42948 -0.003,-5.25105 -0.0292,-5.29807 -1.45783,-2.60776 -0.43656,0.8221 -0.98368,1.61089 -1.21582,1.75286 -0.65251,0.39908 -1.79709,-0.006 -1.97059,-0.6971 -0.24188,-0.96372 0.86992,-4.60416 1.98692,-6.50592 1.53072,-2.60614 2.66189,-3.72926 3.75599,-3.72926 1.39407,0 2.04597,0.66785 3.30974,3.39073 0.64346,1.38637 1.52155,2.92116 1.95132,3.41064 1.21881,1.38813 0.97135,2.98821 -0.46214,2.98821 -0.64639,0 -1.0162,-0.30588 -2.40414,-1.98852 l -0.86955,-1.05419 0.15531,4.63021 c 0.37232,11.09911 0.84572,15.46842 3.44005,31.75 0.49853,3.12869 1.16136,8.30791 1.47296,11.50937 0.51237,5.26413 0.55337,6.90894 0.42873,17.19792 -0.0758,6.25739 -0.0594,12.01886 0.0365,12.80325 l 0.1743,1.42616 1.32292,0.33903 c 8.02515,2.05666 13.40077,9.95266 12.27853,18.03538 -0.94081,6.776 -5.80181,12.30631 -12.26797,13.95712 -2.13461,0.54497 -6.4282,0.49797 -8.47723,-0.0928 z m 7.13914,-2.55096 c 4.54835,-0.96344 8.20301,-4.03198 9.95023,-8.35444 0.88152,-2.18078 1.0181,-6.47295 0.28299,-8.89314 -2.32419,-7.65187 -10.58949,-11.52212 -18.25835,-8.54952 -4.28253,1.65999 -7.55833,5.83236 -8.26029,10.52106 -0.96009,6.41293 2.9878,12.87055 9.07585,14.84548 2.83673,0.92022 4.44462,1.01624 7.20957,0.43056 z M 78.353852,137.15823 v -8.12797 l 3.64539,0.11634 c 3.9961,0.12753 5.24111,0.49559 6.22235,1.83949 1.14079,1.56241 0.79686,3.99988 -0.73433,5.20432 -0.74162,0.58336 -0.84055,0.84518 -0.31937,0.84518 0.59271,0 1.7099,1.40361 2.00063,2.51354 0.51674,1.97279 -0.32379,3.97433 -2.11108,5.02708 -0.76488,0.45053 -1.47835,0.54261 -4.80099,0.61958 l -3.9026,0.0904 z m 7.46173,5.95546 c 1.59206,-0.73626 1.92764,-3.32736 0.60255,-4.65245 -0.58227,-0.58227 -0.84064,-0.6319 -3.28976,-0.6319 h -2.65786 v 2.73403 c 0,1.50371 0.0893,2.82665 0.19844,2.93987 0.29045,0.30128 4.31081,-0.003 5.14663,-0.38955 z m 0.36669,-8.01108 c 1.03859,-1.20802 0.72291,-3.25865 -0.59401,-3.85868 -0.3546,-0.16157 -1.65116,-0.29376 -2.88124,-0.29376 h -2.23651 v 2.53908 2.53909 l 2.53676,-0.0917 c 2.39923,-0.0867 2.57137,-0.13194 3.175,-0.83405 z" id="path1"></path>
  </g>
</svg>
